<svg xmlns="http://www.w3.org/2000/svg" viewBox="0 0 52 52" width="416" height="416" shape-rendering="crispEdges">
<!-- OmniQueue octopus, generated by tools/make_logo.py -->
<rect width="52" height="52" rx="8.7" fill="#073a34"/>
<rect x="11" y="2" width="3" height="1" fill="#e2856c"/>
<rect x="42" y="2" width="3" height="1" fill="#b39a4b"/>
<rect x="10" y="3" width="1" height="1" fill="#e2856c"/>
<rect x="11" y="3" width="1" height="1" fill="#fbefdc"/>
<rect x="12" y="3" width="3" height="1" fill="#e2856c"/>
<rect x="41" y="3" width="1" height="1" fill="#b39a4b"/>
<rect x="42" y="3" width="1" height="1" fill="#fbefdc"/>
<rect x="43" y="3" width="3" height="1" fill="#b39a4b"/>
<rect x="10" y="4" width="5" height="1" fill="#e2856c"/>
<rect x="41" y="4" width="5" height="1" fill="#b39a4b"/>
<rect x="9" y="5" width="1" height="1" fill="#4f8f8a"/>
<rect x="10" y="5" width="5" height="1" fill="#e2856c"/>
<rect x="23" y="5" width="5" height="1" fill="#4f8f8a"/>
<rect x="28" y="5" width="1" height="1" fill="#2f6a66"/>
<rect x="41" y="5" width="5" height="1" fill="#b39a4b"/>
<rect x="8" y="6" width="3" height="1" fill="#4f8f8a"/>
<rect x="11" y="6" width="3" height="1" fill="#e2856c"/>
<rect x="21" y="6" width="9" height="1" fill="#4f8f8a"/>
<rect x="30" y="6" width="1" height="1" fill="#2f6a66"/>
<rect x="41" y="6" width="1" height="1" fill="#4f8f8a"/>
<rect x="42" y="6" width="3" height="1" fill="#b39a4b"/>
<rect x="8" y="7" width="3" height="1" fill="#4f8f8a"/>
<rect x="11" y="7" width="1" height="1" fill="#2f6a66"/>
<rect x="20" y="7" width="11" height="1" fill="#4f8f8a"/>
<rect x="31" y="7" width="1" height="1" fill="#2f6a66"/>
<rect x="41" y="7" width="2" height="1" fill="#4f8f8a"/>
<rect x="43" y="7" width="1" height="1" fill="#2f6a66"/>
<rect x="8" y="8" width="3" height="1" fill="#4f8f8a"/>
<rect x="11" y="8" width="1" height="1" fill="#2f6a66"/>
<rect x="19" y="8" width="13" height="1" fill="#4f8f8a"/>
<rect x="32" y="8" width="1" height="1" fill="#2f6a66"/>
<rect x="41" y="8" width="2" height="1" fill="#4f8f8a"/>
<rect x="43" y="8" width="1" height="1" fill="#2f6a66"/>
<rect x="7" y="9" width="3" height="1" fill="#4f8f8a"/>
<rect x="10" y="9" width="1" height="1" fill="#2f6a66"/>
<rect x="18" y="9" width="15" height="1" fill="#4f8f8a"/>
<rect x="33" y="9" width="1" height="1" fill="#2f6a66"/>
<rect x="40" y="9" width="3" height="1" fill="#4f8f8a"/>
<rect x="43" y="9" width="1" height="1" fill="#2f6a66"/>
<rect x="7" y="10" width="3" height="1" fill="#4f8f8a"/>
<rect x="10" y="10" width="1" height="1" fill="#2f6a66"/>
<rect x="17" y="10" width="17" height="1" fill="#4f8f8a"/>
<rect x="34" y="10" width="1" height="1" fill="#2f6a66"/>
<rect x="40" y="10" width="3" height="1" fill="#4f8f8a"/>
<rect x="43" y="10" width="1" height="1" fill="#2f6a66"/>
<rect x="7" y="11" width="4" height="1" fill="#4f8f8a"/>
<rect x="11" y="11" width="1" height="1" fill="#2f6a66"/>
<rect x="17" y="11" width="17" height="1" fill="#4f8f8a"/>
<rect x="34" y="11" width="1" height="1" fill="#2f6a66"/>
<rect x="40" y="11" width="3" height="1" fill="#4f8f8a"/>
<rect x="43" y="11" width="1" height="1" fill="#2f6a66"/>
<rect x="7" y="12" width="4" height="1" fill="#4f8f8a"/>
<rect x="11" y="12" width="1" height="1" fill="#2f6a66"/>
<rect x="16" y="12" width="19" height="1" fill="#4f8f8a"/>
<rect x="35" y="12" width="1" height="1" fill="#2f6a66"/>
<rect x="39" y="12" width="4" height="1" fill="#4f8f8a"/>
<rect x="43" y="12" width="1" height="1" fill="#2f6a66"/>
<rect x="7" y="13" width="1" height="1" fill="#2f6a66"/>
<rect x="8" y="13" width="3" height="1" fill="#4f8f8a"/>
<rect x="11" y="13" width="1" height="1" fill="#2f6a66"/>
<rect x="16" y="13" width="19" height="1" fill="#4f8f8a"/>
<rect x="35" y="13" width="1" height="1" fill="#2f6a66"/>
<rect x="39" y="13" width="4" height="1" fill="#4f8f8a"/>
<rect x="43" y="13" width="1" height="1" fill="#2f6a66"/>
<rect x="8" y="14" width="3" height="1" fill="#4f8f8a"/>
<rect x="11" y="14" width="1" height="1" fill="#2f6a66"/>
<rect x="16" y="14" width="19" height="1" fill="#4f8f8a"/>
<rect x="35" y="14" width="1" height="1" fill="#2f6a66"/>
<rect x="38" y="14" width="5" height="1" fill="#4f8f8a"/>
<rect x="43" y="14" width="1" height="1" fill="#2f6a66"/>
<rect x="8" y="15" width="4" height="1" fill="#4f8f8a"/>
<rect x="12" y="15" width="1" height="1" fill="#2f6a66"/>
<rect x="16" y="15" width="19" height="1" fill="#4f8f8a"/>
<rect x="35" y="15" width="1" height="1" fill="#2f6a66"/>
<rect x="38" y="15" width="5" height="1" fill="#4f8f8a"/>
<rect x="43" y="15" width="1" height="1" fill="#2f6a66"/>
<rect x="8" y="16" width="4" height="1" fill="#4f8f8a"/>
<rect x="12" y="16" width="1" height="1" fill="#2f6a66"/>
<rect x="16" y="16" width="19" height="1" fill="#4f8f8a"/>
<rect x="35" y="16" width="1" height="1" fill="#2f6a66"/>
<rect x="37" y="16" width="5" height="1" fill="#4f8f8a"/>
<rect x="42" y="16" width="1" height="1" fill="#2f6a66"/>
<rect x="3" y="17" width="3" height="1" fill="#a9cbc8"/>
<rect x="8" y="17" width="6" height="1" fill="#4f8f8a"/>
<rect x="14" y="17" width="1" height="1" fill="#2f6a66"/>
<rect x="16" y="17" width="26" height="1" fill="#4f8f8a"/>
<rect x="42" y="17" width="1" height="1" fill="#2f6a66"/>
<rect x="2" y="18" width="1" height="1" fill="#a9cbc8"/>
<rect x="3" y="18" width="1" height="1" fill="#fbefdc"/>
<rect x="4" y="18" width="3" height="1" fill="#a9cbc8"/>
<rect x="8" y="18" width="1" height="1" fill="#2f6a66"/>
<rect x="9" y="18" width="5" height="1" fill="#4f8f8a"/>
<rect x="14" y="18" width="1" height="1" fill="#2f6a66"/>
<rect x="16" y="18" width="5" height="1" fill="#4f8f8a"/>
<rect x="21" y="18" width="2" height="1" fill="#0d3b38"/>
<rect x="23" y="18" width="6" height="1" fill="#4f8f8a"/>
<rect x="29" y="18" width="2" height="1" fill="#0d3b38"/>
<rect x="31" y="18" width="10" height="1" fill="#4f8f8a"/>
<rect x="41" y="18" width="1" height="1" fill="#2f6a66"/>
<rect x="46" y="18" width="3" height="1" fill="#c8b47c"/>
<rect x="2" y="19" width="5" height="1" fill="#a9cbc8"/>
<rect x="9" y="19" width="1" height="1" fill="#2f6a66"/>
<rect x="10" y="19" width="11" height="1" fill="#4f8f8a"/>
<rect x="21" y="19" width="2" height="1" fill="#0d3b38"/>
<rect x="23" y="19" width="6" height="1" fill="#4f8f8a"/>
<rect x="29" y="19" width="2" height="1" fill="#0d3b38"/>
<rect x="31" y="19" width="10" height="1" fill="#4f8f8a"/>
<rect x="41" y="19" width="1" height="1" fill="#2f6a66"/>
<rect x="45" y="19" width="1" height="1" fill="#c8b47c"/>
<rect x="46" y="19" width="1" height="1" fill="#fbefdc"/>
<rect x="47" y="19" width="3" height="1" fill="#c8b47c"/>
<rect x="2" y="20" width="5" height="1" fill="#a9cbc8"/>
<rect x="10" y="20" width="30" height="1" fill="#4f8f8a"/>
<rect x="40" y="20" width="1" height="1" fill="#2f6a66"/>
<rect x="45" y="20" width="5" height="1" fill="#c8b47c"/>
<rect x="3" y="21" width="4" height="1" fill="#a9cbc8"/>
<rect x="10" y="21" width="30" height="1" fill="#4f8f8a"/>
<rect x="40" y="21" width="1" height="1" fill="#2f6a66"/>
<rect x="45" y="21" width="5" height="1" fill="#c8b47c"/>
<rect x="4" y="22" width="2" height="1" fill="#4f8f8a"/>
<rect x="6" y="22" width="1" height="1" fill="#2f6a66"/>
<rect x="10" y="22" width="30" height="1" fill="#4f8f8a"/>
<rect x="40" y="22" width="1" height="1" fill="#2f6a66"/>
<rect x="45" y="22" width="4" height="1" fill="#c8b47c"/>
<rect x="4" y="23" width="2" height="1" fill="#4f8f8a"/>
<rect x="6" y="23" width="1" height="1" fill="#2f6a66"/>
<rect x="10" y="23" width="1" height="1" fill="#2f6a66"/>
<rect x="11" y="23" width="28" height="1" fill="#4f8f8a"/>
<rect x="39" y="23" width="1" height="1" fill="#2f6a66"/>
<rect x="45" y="23" width="3" height="1" fill="#4f8f8a"/>
<rect x="48" y="23" width="1" height="1" fill="#2f6a66"/>
<rect x="4" y="24" width="2" height="1" fill="#4f8f8a"/>
<rect x="6" y="24" width="1" height="1" fill="#2f6a66"/>
<rect x="11" y="24" width="1" height="1" fill="#2f6a66"/>
<rect x="12" y="24" width="26" height="1" fill="#4f8f8a"/>
<rect x="38" y="24" width="1" height="1" fill="#2f6a66"/>
<rect x="45" y="24" width="3" height="1" fill="#4f8f8a"/>
<rect x="48" y="24" width="1" height="1" fill="#2f6a66"/>
<rect x="4" y="25" width="2" height="1" fill="#4f8f8a"/>
<rect x="6" y="25" width="1" height="1" fill="#2f6a66"/>
<rect x="12" y="25" width="1" height="1" fill="#2f6a66"/>
<rect x="13" y="25" width="24" height="1" fill="#4f8f8a"/>
<rect x="37" y="25" width="1" height="1" fill="#2f6a66"/>
<rect x="45" y="25" width="2" height="1" fill="#4f8f8a"/>
<rect x="47" y="25" width="1" height="1" fill="#2f6a66"/>
<rect x="4" y="26" width="3" height="1" fill="#4f8f8a"/>
<rect x="7" y="26" width="1" height="1" fill="#2f6a66"/>
<rect x="13" y="26" width="1" height="1" fill="#2f6a66"/>
<rect x="14" y="26" width="22" height="1" fill="#4f8f8a"/>
<rect x="36" y="26" width="1" height="1" fill="#2f6a66"/>
<rect x="44" y="26" width="3" height="1" fill="#4f8f8a"/>
<rect x="47" y="26" width="1" height="1" fill="#2f6a66"/>
<rect x="4" y="27" width="3" height="1" fill="#4f8f8a"/>
<rect x="7" y="27" width="1" height="1" fill="#2f6a66"/>
<rect x="14" y="27" width="2" height="1" fill="#2f6a66"/>
<rect x="16" y="27" width="19" height="1" fill="#4f8f8a"/>
<rect x="35" y="27" width="1" height="1" fill="#2f6a66"/>
<rect x="44" y="27" width="3" height="1" fill="#4f8f8a"/>
<rect x="47" y="27" width="1" height="1" fill="#2f6a66"/>
<rect x="4" y="28" width="4" height="1" fill="#4f8f8a"/>
<rect x="8" y="28" width="1" height="1" fill="#2f6a66"/>
<rect x="16" y="28" width="1" height="1" fill="#2f6a66"/>
<rect x="17" y="28" width="16" height="1" fill="#4f8f8a"/>
<rect x="33" y="28" width="2" height="1" fill="#2f6a66"/>
<rect x="44" y="28" width="3" height="1" fill="#4f8f8a"/>
<rect x="47" y="28" width="1" height="1" fill="#2f6a66"/>
<rect x="4" y="29" width="6" height="1" fill="#4f8f8a"/>
<rect x="10" y="29" width="1" height="1" fill="#2f6a66"/>
<rect x="17" y="29" width="15" height="1" fill="#4f8f8a"/>
<rect x="32" y="29" width="1" height="1" fill="#2f6a66"/>
<rect x="44" y="29" width="3" height="1" fill="#4f8f8a"/>
<rect x="47" y="29" width="1" height="1" fill="#2f6a66"/>
<rect x="4" y="30" width="34" height="1" fill="#4f8f8a"/>
<rect x="38" y="30" width="1" height="1" fill="#2f6a66"/>
<rect x="42" y="30" width="5" height="1" fill="#4f8f8a"/>
<rect x="47" y="30" width="1" height="1" fill="#2f6a66"/>
<rect x="4" y="31" width="1" height="1" fill="#2f6a66"/>
<rect x="5" y="31" width="42" height="1" fill="#4f8f8a"/>
<rect x="47" y="31" width="1" height="1" fill="#2f6a66"/>
<rect x="5" y="32" width="2" height="1" fill="#2f6a66"/>
<rect x="7" y="32" width="40" height="1" fill="#4f8f8a"/>
<rect x="47" y="32" width="1" height="1" fill="#2f6a66"/>
<rect x="7" y="33" width="1" height="1" fill="#2f6a66"/>
<rect x="8" y="33" width="37" height="1" fill="#4f8f8a"/>
<rect x="45" y="33" width="2" height="1" fill="#2f6a66"/>
<rect x="8" y="34" width="6" height="1" fill="#2f6a66"/>
<rect x="14" y="34" width="30" height="1" fill="#4f8f8a"/>
<rect x="44" y="34" width="1" height="1" fill="#2f6a66"/>
<rect x="14" y="35" width="29" height="1" fill="#4f8f8a"/>
<rect x="43" y="35" width="1" height="1" fill="#2f6a66"/>
<rect x="12" y="36" width="28" height="1" fill="#4f8f8a"/>
<rect x="40" y="36" width="3" height="1" fill="#2f6a66"/>
<rect x="12" y="37" width="27" height="1" fill="#4f8f8a"/>
<rect x="39" y="37" width="1" height="1" fill="#2f6a66"/>
<rect x="11" y="38" width="9" height="1" fill="#4f8f8a"/>
<rect x="20" y="38" width="1" height="1" fill="#2f6a66"/>
<rect x="21" y="38" width="19" height="1" fill="#4f8f8a"/>
<rect x="40" y="38" width="1" height="1" fill="#2f6a66"/>
<rect x="10" y="39" width="9" height="1" fill="#4f8f8a"/>
<rect x="19" y="39" width="1" height="1" fill="#2f6a66"/>
<rect x="21" y="39" width="20" height="1" fill="#4f8f8a"/>
<rect x="41" y="39" width="1" height="1" fill="#2f6a66"/>
<rect x="9" y="40" width="8" height="1" fill="#4f8f8a"/>
<rect x="17" y="40" width="2" height="1" fill="#2f6a66"/>
<rect x="20" y="40" width="6" height="1" fill="#4f8f8a"/>
<rect x="26" y="40" width="1" height="1" fill="#2f6a66"/>
<rect x="27" y="40" width="6" height="1" fill="#4f8f8a"/>
<rect x="33" y="40" width="2" height="1" fill="#2f6a66"/>
<rect x="35" y="40" width="7" height="1" fill="#4f8f8a"/>
<rect x="42" y="40" width="1" height="1" fill="#2f6a66"/>
<rect x="8" y="41" width="7" height="1" fill="#4f8f8a"/>
<rect x="15" y="41" width="2" height="1" fill="#2f6a66"/>
<rect x="20" y="41" width="5" height="1" fill="#4f8f8a"/>
<rect x="25" y="41" width="1" height="1" fill="#2f6a66"/>
<rect x="27" y="41" width="5" height="1" fill="#4f8f8a"/>
<rect x="32" y="41" width="1" height="1" fill="#2f6a66"/>
<rect x="35" y="41" width="2" height="1" fill="#2f6a66"/>
<rect x="37" y="41" width="6" height="1" fill="#4f8f8a"/>
<rect x="43" y="41" width="1" height="1" fill="#2f6a66"/>
<rect x="7" y="42" width="7" height="1" fill="#4f8f8a"/>
<rect x="14" y="42" width="1" height="1" fill="#2f6a66"/>
<rect x="19" y="42" width="6" height="1" fill="#4f8f8a"/>
<rect x="25" y="42" width="1" height="1" fill="#2f6a66"/>
<rect x="27" y="42" width="1" height="1" fill="#2f6a66"/>
<rect x="28" y="42" width="5" height="1" fill="#4f8f8a"/>
<rect x="33" y="42" width="1" height="1" fill="#2f6a66"/>
<rect x="37" y="42" width="1" height="1" fill="#2f6a66"/>
<rect x="38" y="42" width="6" height="1" fill="#4f8f8a"/>
<rect x="44" y="42" width="1" height="1" fill="#2f6a66"/>
<rect x="6" y="43" width="7" height="1" fill="#4f8f8a"/>
<rect x="13" y="43" width="1" height="1" fill="#2f6a66"/>
<rect x="19" y="43" width="5" height="1" fill="#4f8f8a"/>
<rect x="24" y="43" width="1" height="1" fill="#2f6a66"/>
<rect x="28" y="43" width="1" height="1" fill="#2f6a66"/>
<rect x="29" y="43" width="4" height="1" fill="#4f8f8a"/>
<rect x="33" y="43" width="1" height="1" fill="#2f6a66"/>
<rect x="38" y="43" width="1" height="1" fill="#2f6a66"/>
<rect x="39" y="43" width="6" height="1" fill="#4f8f8a"/>
<rect x="45" y="43" width="1" height="1" fill="#2f6a66"/>
<rect x="4" y="44" width="7" height="1" fill="#4f8f8a"/>
<rect x="11" y="44" width="2" height="1" fill="#2f6a66"/>
<rect x="19" y="44" width="4" height="1" fill="#4f8f8a"/>
<rect x="23" y="44" width="1" height="1" fill="#2f6a66"/>
<rect x="29" y="44" width="4" height="1" fill="#4f8f8a"/>
<rect x="33" y="44" width="1" height="1" fill="#2f6a66"/>
<rect x="39" y="44" width="2" height="1" fill="#2f6a66"/>
<rect x="41" y="44" width="7" height="1" fill="#4f8f8a"/>
<rect x="48" y="44" width="1" height="1" fill="#2f6a66"/>
<rect x="3" y="45" width="3" height="1" fill="#f3c6b6"/>
<rect x="6" y="45" width="3" height="1" fill="#4f8f8a"/>
<rect x="9" y="45" width="2" height="1" fill="#2f6a66"/>
<rect x="15" y="45" width="4" height="1" fill="#b07a8a"/>
<rect x="19" y="45" width="4" height="1" fill="#4f8f8a"/>
<rect x="23" y="45" width="1" height="1" fill="#2f6a66"/>
<rect x="29" y="45" width="1" height="1" fill="#2f6a66"/>
<rect x="30" y="45" width="4" height="1" fill="#4f8f8a"/>
<rect x="34" y="45" width="4" height="1" fill="#fbefdc"/>
<rect x="41" y="45" width="3" height="1" fill="#2f6a66"/>
<rect x="44" y="45" width="2" height="1" fill="#4f8f8a"/>
<rect x="46" y="45" width="3" height="1" fill="#8fa35a"/>
<rect x="2" y="46" width="1" height="1" fill="#f3c6b6"/>
<rect x="3" y="46" width="1" height="1" fill="#fbefdc"/>
<rect x="4" y="46" width="3" height="1" fill="#f3c6b6"/>
<rect x="7" y="46" width="2" height="1" fill="#2f6a66"/>
<rect x="14" y="46" width="1" height="1" fill="#b07a8a"/>
<rect x="15" y="46" width="1" height="1" fill="#fbefdc"/>
<rect x="16" y="46" width="3" height="1" fill="#b07a8a"/>
<rect x="19" y="46" width="2" height="1" fill="#4f8f8a"/>
<rect x="21" y="46" width="2" height="1" fill="#2f6a66"/>
<rect x="30" y="46" width="2" height="1" fill="#2f6a66"/>
<rect x="32" y="46" width="2" height="1" fill="#4f8f8a"/>
<rect x="34" y="46" width="1" height="1" fill="#fbefdc"/>
<rect x="35" y="46" width="1" height="1" fill="#c8b47c"/>
<rect x="36" y="46" width="3" height="1" fill="#fbefdc"/>
<rect x="44" y="46" width="1" height="1" fill="#2f6a66"/>
<rect x="45" y="46" width="1" height="1" fill="#8fa35a"/>
<rect x="46" y="46" width="1" height="1" fill="#fbefdc"/>
<rect x="47" y="46" width="3" height="1" fill="#8fa35a"/>
<rect x="2" y="47" width="5" height="1" fill="#f3c6b6"/>
<rect x="14" y="47" width="5" height="1" fill="#b07a8a"/>
<rect x="19" y="47" width="1" height="1" fill="#4f8f8a"/>
<rect x="20" y="47" width="1" height="1" fill="#2f6a66"/>
<rect x="32" y="47" width="2" height="1" fill="#4f8f8a"/>
<rect x="34" y="47" width="5" height="1" fill="#fbefdc"/>
<rect x="45" y="47" width="5" height="1" fill="#8fa35a"/>
<rect x="2" y="48" width="5" height="1" fill="#f3c6b6"/>
<rect x="14" y="48" width="5" height="1" fill="#b07a8a"/>
<rect x="19" y="48" width="2" height="1" fill="#2f6a66"/>
<rect x="32" y="48" width="2" height="1" fill="#2f6a66"/>
<rect x="34" y="48" width="5" height="1" fill="#fbefdc"/>
<rect x="45" y="48" width="5" height="1" fill="#8fa35a"/>
<rect x="3" y="49" width="3" height="1" fill="#f3c6b6"/>
<rect x="15" y="49" width="3" height="1" fill="#b07a8a"/>
<rect x="35" y="49" width="3" height="1" fill="#fbefdc"/>
<rect x="46" y="49" width="3" height="1" fill="#8fa35a"/>
</svg>
