<svg xmlns="http://www.w3.org/2000/svg" viewBox="0 0 60 60" width="480" height="480" shape-rendering="crispEdges">
<!-- OmniQueue octopus, generated by tools/make_logo.py -->
<rect width="60" height="60" rx="10.0" fill="#073a34"/>
<rect x="46" y="2" width="4" height="1" fill="#4f8f8a"/>
<rect x="50" y="2" width="1" height="1" fill="#3b7672"/>
<rect x="51" y="2" width="1" height="1" fill="#26564f"/>
<rect x="45" y="3" width="7" height="1" fill="#3b7672"/>
<rect x="52" y="3" width="1" height="1" fill="#26564f"/>
<rect x="8" y="4" width="3" height="1" fill="#7fb5b0"/>
<rect x="11" y="4" width="1" height="1" fill="#3b7672"/>
<rect x="12" y="4" width="1" height="1" fill="#26564f"/>
<rect x="28" y="4" width="2" height="1" fill="#7fb5b0"/>
<rect x="30" y="4" width="1" height="1" fill="#3b7672"/>
<rect x="31" y="4" width="1" height="1" fill="#26564f"/>
<rect x="44" y="4" width="1" height="1" fill="#3b7672"/>
<rect x="45" y="4" width="6" height="1" fill="#26564f"/>
<rect x="51" y="4" width="2" height="1" fill="#3b7672"/>
<rect x="53" y="4" width="1" height="1" fill="#26564f"/>
<rect x="6" y="5" width="7" height="1" fill="#3b7672"/>
<rect x="13" y="5" width="1" height="1" fill="#26564f"/>
<rect x="25" y="5" width="5" height="1" fill="#7fb5b0"/>
<rect x="30" y="5" width="3" height="1" fill="#4f8f8a"/>
<rect x="33" y="5" width="1" height="1" fill="#3b7672"/>
<rect x="34" y="5" width="1" height="1" fill="#26564f"/>
<rect x="43" y="5" width="1" height="1" fill="#3b7672"/>
<rect x="44" y="5" width="2" height="1" fill="#26564f"/>
<rect x="51" y="5" width="1" height="1" fill="#26564f"/>
<rect x="52" y="5" width="1" height="1" fill="#4f8f8a"/>
<rect x="53" y="5" width="1" height="1" fill="#3b7672"/>
<rect x="54" y="5" width="1" height="1" fill="#26564f"/>
<rect x="5" y="6" width="1" height="1" fill="#7fb5b0"/>
<rect x="6" y="6" width="1" height="1" fill="#3b7672"/>
<rect x="7" y="6" width="6" height="1" fill="#26564f"/>
<rect x="13" y="6" width="1" height="1" fill="#3b7672"/>
<rect x="14" y="6" width="1" height="1" fill="#26564f"/>
<rect x="23" y="6" width="6" height="1" fill="#7fb5b0"/>
<rect x="29" y="6" width="6" height="1" fill="#4f8f8a"/>
<rect x="35" y="6" width="1" height="1" fill="#3b7672"/>
<rect x="36" y="6" width="1" height="1" fill="#26564f"/>
<rect x="43" y="6" width="1" height="1" fill="#3b7672"/>
<rect x="44" y="6" width="1" height="1" fill="#26564f"/>
<rect x="46" y="6" width="1" height="1" fill="#fbefdc"/>
<rect x="47" y="6" width="3" height="1" fill="#b39a4b"/>
<rect x="52" y="6" width="1" height="1" fill="#4f8f8a"/>
<rect x="53" y="6" width="1" height="1" fill="#3b7672"/>
<rect x="54" y="6" width="1" height="1" fill="#26564f"/>
<rect x="5" y="7" width="2" height="1" fill="#3b7672"/>
<rect x="7" y="7" width="1" height="1" fill="#26564f"/>
<rect x="13" y="7" width="2" height="1" fill="#3b7672"/>
<rect x="15" y="7" width="1" height="1" fill="#26564f"/>
<rect x="22" y="7" width="4" height="1" fill="#7fb5b0"/>
<rect x="26" y="7" width="10" height="1" fill="#4f8f8a"/>
<rect x="36" y="7" width="1" height="1" fill="#3b7672"/>
<rect x="37" y="7" width="1" height="1" fill="#26564f"/>
<rect x="43" y="7" width="1" height="1" fill="#3b7672"/>
<rect x="44" y="7" width="1" height="1" fill="#26564f"/>
<rect x="46" y="7" width="4" height="1" fill="#b39a4b"/>
<rect x="52" y="7" width="1" height="1" fill="#4f8f8a"/>
<rect x="53" y="7" width="1" height="1" fill="#3b7672"/>
<rect x="54" y="7" width="1" height="1" fill="#26564f"/>
<rect x="4" y="8" width="1" height="1" fill="#7fb5b0"/>
<rect x="5" y="8" width="1" height="1" fill="#3b7672"/>
<rect x="6" y="8" width="2" height="1" fill="#26564f"/>
<rect x="9" y="8" width="1" height="1" fill="#fbefdc"/>
<rect x="10" y="8" width="3" height="1" fill="#e2856c"/>
<rect x="13" y="8" width="1" height="1" fill="#26564f"/>
<rect x="14" y="8" width="1" height="1" fill="#3b7672"/>
<rect x="15" y="8" width="1" height="1" fill="#26564f"/>
<rect x="21" y="8" width="3" height="1" fill="#7fb5b0"/>
<rect x="24" y="8" width="13" height="1" fill="#4f8f8a"/>
<rect x="37" y="8" width="1" height="1" fill="#3b7672"/>
<rect x="38" y="8" width="1" height="1" fill="#26564f"/>
<rect x="43" y="8" width="1" height="1" fill="#3b7672"/>
<rect x="44" y="8" width="1" height="1" fill="#26564f"/>
<rect x="46" y="8" width="4" height="1" fill="#b39a4b"/>
<rect x="52" y="8" width="1" height="1" fill="#4f8f8a"/>
<rect x="53" y="8" width="1" height="1" fill="#3b7672"/>
<rect x="54" y="8" width="1" height="1" fill="#26564f"/>
<rect x="4" y="9" width="1" height="1" fill="#7fb5b0"/>
<rect x="5" y="9" width="1" height="1" fill="#3b7672"/>
<rect x="6" y="9" width="1" height="1" fill="#26564f"/>
<rect x="9" y="9" width="4" height="1" fill="#e2856c"/>
<rect x="14" y="9" width="1" height="1" fill="#3b7672"/>
<rect x="15" y="9" width="1" height="1" fill="#26564f"/>
<rect x="20" y="9" width="3" height="1" fill="#7fb5b0"/>
<rect x="23" y="9" width="15" height="1" fill="#4f8f8a"/>
<rect x="38" y="9" width="1" height="1" fill="#3b7672"/>
<rect x="39" y="9" width="1" height="1" fill="#26564f"/>
<rect x="43" y="9" width="1" height="1" fill="#26564f"/>
<rect x="44" y="9" width="1" height="1" fill="#3b7672"/>
<rect x="45" y="9" width="1" height="1" fill="#26564f"/>
<rect x="46" y="9" width="4" height="1" fill="#b39a4b"/>
<rect x="52" y="9" width="1" height="1" fill="#4f8f8a"/>
<rect x="53" y="9" width="1" height="1" fill="#3b7672"/>
<rect x="54" y="9" width="1" height="1" fill="#26564f"/>
<rect x="4" y="10" width="1" height="1" fill="#7fb5b0"/>
<rect x="5" y="10" width="1" height="1" fill="#3b7672"/>
<rect x="6" y="10" width="1" height="1" fill="#26564f"/>
<rect x="9" y="10" width="4" height="1" fill="#e2856c"/>
<rect x="14" y="10" width="2" height="1" fill="#26564f"/>
<rect x="19" y="10" width="3" height="1" fill="#7fb5b0"/>
<rect x="22" y="10" width="17" height="1" fill="#4f8f8a"/>
<rect x="39" y="10" width="1" height="1" fill="#3b7672"/>
<rect x="40" y="10" width="1" height="1" fill="#26564f"/>
<rect x="44" y="10" width="1" height="1" fill="#26564f"/>
<rect x="45" y="10" width="1" height="1" fill="#3b7672"/>
<rect x="46" y="10" width="1" height="1" fill="#26564f"/>
<rect x="51" y="10" width="1" height="1" fill="#4f8f8a"/>
<rect x="52" y="10" width="2" height="1" fill="#3b7672"/>
<rect x="54" y="10" width="1" height="1" fill="#26564f"/>
<rect x="4" y="11" width="2" height="1" fill="#3b7672"/>
<rect x="6" y="11" width="1" height="1" fill="#26564f"/>
<rect x="9" y="11" width="4" height="1" fill="#e2856c"/>
<rect x="13" y="11" width="1" height="1" fill="#3b7672"/>
<rect x="14" y="11" width="1" height="1" fill="#26564f"/>
<rect x="19" y="11" width="2" height="1" fill="#7fb5b0"/>
<rect x="21" y="11" width="18" height="1" fill="#4f8f8a"/>
<rect x="39" y="11" width="1" height="1" fill="#3b7672"/>
<rect x="40" y="11" width="1" height="1" fill="#26564f"/>
<rect x="45" y="11" width="2" height="1" fill="#26564f"/>
<rect x="51" y="11" width="1" height="1" fill="#4f8f8a"/>
<rect x="52" y="11" width="1" height="1" fill="#3b7672"/>
<rect x="53" y="11" width="2" height="1" fill="#26564f"/>
<rect x="4" y="12" width="1" height="1" fill="#26564f"/>
<rect x="5" y="12" width="1" height="1" fill="#7fb5b0"/>
<rect x="6" y="12" width="1" height="1" fill="#3b7672"/>
<rect x="7" y="12" width="1" height="1" fill="#26564f"/>
<rect x="12" y="12" width="3" height="1" fill="#26564f"/>
<rect x="18" y="12" width="3" height="1" fill="#7fb5b0"/>
<rect x="21" y="12" width="19" height="1" fill="#4f8f8a"/>
<rect x="40" y="12" width="1" height="1" fill="#3b7672"/>
<rect x="41" y="12" width="1" height="1" fill="#26564f"/>
<rect x="49" y="12" width="2" height="1" fill="#4f8f8a"/>
<rect x="51" y="12" width="2" height="1" fill="#3b7672"/>
<rect x="53" y="12" width="1" height="1" fill="#26564f"/>
<rect x="5" y="13" width="1" height="1" fill="#3b7672"/>
<rect x="6" y="13" width="1" height="1" fill="#7fb5b0"/>
<rect x="7" y="13" width="1" height="1" fill="#3b7672"/>
<rect x="8" y="13" width="1" height="1" fill="#26564f"/>
<rect x="18" y="13" width="2" height="1" fill="#7fb5b0"/>
<rect x="20" y="13" width="20" height="1" fill="#4f8f8a"/>
<rect x="40" y="13" width="1" height="1" fill="#3b7672"/>
<rect x="41" y="13" width="1" height="1" fill="#26564f"/>
<rect x="48" y="13" width="2" height="1" fill="#4f8f8a"/>
<rect x="50" y="13" width="2" height="1" fill="#3b7672"/>
<rect x="52" y="13" width="2" height="1" fill="#26564f"/>
<rect x="5" y="14" width="1" height="1" fill="#26564f"/>
<rect x="6" y="14" width="1" height="1" fill="#3b7672"/>
<rect x="7" y="14" width="1" height="1" fill="#4f8f8a"/>
<rect x="8" y="14" width="1" height="1" fill="#7fb5b0"/>
<rect x="9" y="14" width="1" height="1" fill="#3b7672"/>
<rect x="10" y="14" width="1" height="1" fill="#26564f"/>
<rect x="18" y="14" width="2" height="1" fill="#7fb5b0"/>
<rect x="20" y="14" width="20" height="1" fill="#4f8f8a"/>
<rect x="40" y="14" width="1" height="1" fill="#3b7672"/>
<rect x="41" y="14" width="1" height="1" fill="#26564f"/>
<rect x="48" y="14" width="1" height="1" fill="#4f8f8a"/>
<rect x="49" y="14" width="2" height="1" fill="#3b7672"/>
<rect x="51" y="14" width="2" height="1" fill="#26564f"/>
<rect x="6" y="15" width="1" height="1" fill="#26564f"/>
<rect x="7" y="15" width="1" height="1" fill="#3b7672"/>
<rect x="8" y="15" width="1" height="1" fill="#4f8f8a"/>
<rect x="9" y="15" width="1" height="1" fill="#7fb5b0"/>
<rect x="10" y="15" width="1" height="1" fill="#3b7672"/>
<rect x="11" y="15" width="1" height="1" fill="#26564f"/>
<rect x="17" y="15" width="3" height="1" fill="#7fb5b0"/>
<rect x="20" y="15" width="21" height="1" fill="#4f8f8a"/>
<rect x="41" y="15" width="1" height="1" fill="#3b7672"/>
<rect x="42" y="15" width="1" height="1" fill="#26564f"/>
<rect x="48" y="15" width="1" height="1" fill="#4f8f8a"/>
<rect x="49" y="15" width="1" height="1" fill="#3b7672"/>
<rect x="50" y="15" width="2" height="1" fill="#26564f"/>
<rect x="7" y="16" width="1" height="1" fill="#26564f"/>
<rect x="8" y="16" width="1" height="1" fill="#7fb5b0"/>
<rect x="9" y="16" width="1" height="1" fill="#4f8f8a"/>
<rect x="10" y="16" width="1" height="1" fill="#3b7672"/>
<rect x="11" y="16" width="1" height="1" fill="#26564f"/>
<rect x="17" y="16" width="2" height="1" fill="#7fb5b0"/>
<rect x="19" y="16" width="22" height="1" fill="#4f8f8a"/>
<rect x="41" y="16" width="1" height="1" fill="#3b7672"/>
<rect x="42" y="16" width="1" height="1" fill="#26564f"/>
<rect x="47" y="16" width="2" height="1" fill="#4f8f8a"/>
<rect x="49" y="16" width="1" height="1" fill="#3b7672"/>
<rect x="50" y="16" width="1" height="1" fill="#26564f"/>
<rect x="8" y="17" width="2" height="1" fill="#7fb5b0"/>
<rect x="10" y="17" width="1" height="1" fill="#3b7672"/>
<rect x="11" y="17" width="1" height="1" fill="#26564f"/>
<rect x="17" y="17" width="1" height="1" fill="#3b7672"/>
<rect x="18" y="17" width="1" height="1" fill="#7fb5b0"/>
<rect x="19" y="17" width="21" height="1" fill="#4f8f8a"/>
<rect x="40" y="17" width="2" height="1" fill="#3b7672"/>
<rect x="42" y="17" width="1" height="1" fill="#26564f"/>
<rect x="47" y="17" width="2" height="1" fill="#4f8f8a"/>
<rect x="49" y="17" width="1" height="1" fill="#3b7672"/>
<rect x="50" y="17" width="1" height="1" fill="#26564f"/>
<rect x="5" y="18" width="5" height="1" fill="#7fb5b0"/>
<rect x="10" y="18" width="1" height="1" fill="#3b7672"/>
<rect x="11" y="18" width="1" height="1" fill="#26564f"/>
<rect x="17" y="18" width="1" height="1" fill="#26564f"/>
<rect x="18" y="18" width="1" height="1" fill="#7fb5b0"/>
<rect x="19" y="18" width="21" height="1" fill="#4f8f8a"/>
<rect x="40" y="18" width="1" height="1" fill="#3b7672"/>
<rect x="41" y="18" width="2" height="1" fill="#26564f"/>
<rect x="47" y="18" width="6" height="1" fill="#4f8f8a"/>
<rect x="53" y="18" width="1" height="1" fill="#3b7672"/>
<rect x="54" y="18" width="1" height="1" fill="#26564f"/>
<rect x="3" y="19" width="1" height="1" fill="#4f8f8a"/>
<rect x="4" y="19" width="4" height="1" fill="#3b7672"/>
<rect x="8" y="19" width="2" height="1" fill="#4f8f8a"/>
<rect x="10" y="19" width="1" height="1" fill="#3b7672"/>
<rect x="11" y="19" width="1" height="1" fill="#26564f"/>
<rect x="18" y="19" width="22" height="1" fill="#4f8f8a"/>
<rect x="40" y="19" width="1" height="1" fill="#3b7672"/>
<rect x="41" y="19" width="1" height="1" fill="#26564f"/>
<rect x="46" y="19" width="2" height="1" fill="#4f8f8a"/>
<rect x="48" y="19" width="6" height="1" fill="#3b7672"/>
<rect x="54" y="19" width="1" height="1" fill="#4f8f8a"/>
<rect x="55" y="19" width="1" height="1" fill="#3b7672"/>
<rect x="56" y="19" width="1" height="1" fill="#26564f"/>
<rect x="2" y="20" width="1" height="1" fill="#4f8f8a"/>
<rect x="3" y="20" width="2" height="1" fill="#3b7672"/>
<rect x="5" y="20" width="3" height="1" fill="#26564f"/>
<rect x="8" y="20" width="1" height="1" fill="#3b7672"/>
<rect x="9" y="20" width="1" height="1" fill="#4f8f8a"/>
<rect x="10" y="20" width="1" height="1" fill="#3b7672"/>
<rect x="11" y="20" width="1" height="1" fill="#26564f"/>
<rect x="18" y="20" width="1" height="1" fill="#3b7672"/>
<rect x="19" y="20" width="20" height="1" fill="#4f8f8a"/>
<rect x="39" y="20" width="2" height="1" fill="#3b7672"/>
<rect x="41" y="20" width="1" height="1" fill="#26564f"/>
<rect x="46" y="20" width="2" height="1" fill="#4f8f8a"/>
<rect x="48" y="20" width="1" height="1" fill="#3b7672"/>
<rect x="49" y="20" width="5" height="1" fill="#26564f"/>
<rect x="54" y="20" width="1" height="1" fill="#3b7672"/>
<rect x="55" y="20" width="1" height="1" fill="#4f8f8a"/>
<rect x="56" y="20" width="1" height="1" fill="#3b7672"/>
<rect x="57" y="20" width="1" height="1" fill="#26564f"/>
<rect x="2" y="21" width="2" height="1" fill="#3b7672"/>
<rect x="4" y="21" width="2" height="1" fill="#26564f"/>
<rect x="8" y="21" width="1" height="1" fill="#26564f"/>
<rect x="9" y="21" width="2" height="1" fill="#4f8f8a"/>
<rect x="11" y="21" width="1" height="1" fill="#3b7672"/>
<rect x="12" y="21" width="1" height="1" fill="#26564f"/>
<rect x="18" y="21" width="1" height="1" fill="#26564f"/>
<rect x="19" y="21" width="20" height="1" fill="#4f8f8a"/>
<rect x="39" y="21" width="1" height="1" fill="#3b7672"/>
<rect x="40" y="21" width="2" height="1" fill="#26564f"/>
<rect x="45" y="21" width="2" height="1" fill="#4f8f8a"/>
<rect x="47" y="21" width="2" height="1" fill="#3b7672"/>
<rect x="49" y="21" width="1" height="1" fill="#26564f"/>
<rect x="54" y="21" width="1" height="1" fill="#26564f"/>
<rect x="55" y="21" width="2" height="1" fill="#3b7672"/>
<rect x="57" y="21" width="1" height="1" fill="#26564f"/>
<rect x="2" y="22" width="1" height="1" fill="#3b7672"/>
<rect x="3" y="22" width="2" height="1" fill="#26564f"/>
<rect x="6" y="22" width="1" height="1" fill="#fbefdc"/>
<rect x="7" y="22" width="3" height="1" fill="#a9cbc8"/>
<rect x="10" y="22" width="1" height="1" fill="#4f8f8a"/>
<rect x="11" y="22" width="1" height="1" fill="#3b7672"/>
<rect x="12" y="22" width="1" height="1" fill="#26564f"/>
<rect x="19" y="22" width="1" height="1" fill="#3b7672"/>
<rect x="20" y="22" width="18" height="1" fill="#4f8f8a"/>
<rect x="38" y="22" width="2" height="1" fill="#3b7672"/>
<rect x="40" y="22" width="1" height="1" fill="#26564f"/>
<rect x="44" y="22" width="3" height="1" fill="#4f8f8a"/>
<rect x="47" y="22" width="1" height="1" fill="#3b7672"/>
<rect x="48" y="22" width="2" height="1" fill="#26564f"/>
<rect x="50" y="22" width="1" height="1" fill="#fbefdc"/>
<rect x="51" y="22" width="3" height="1" fill="#c8b47c"/>
<rect x="55" y="22" width="1" height="1" fill="#26564f"/>
<rect x="56" y="22" width="1" height="1" fill="#3b7672"/>
<rect x="57" y="22" width="1" height="1" fill="#26564f"/>
<rect x="2" y="23" width="1" height="1" fill="#3b7672"/>
<rect x="3" y="23" width="1" height="1" fill="#26564f"/>
<rect x="6" y="23" width="4" height="1" fill="#a9cbc8"/>
<rect x="10" y="23" width="2" height="1" fill="#4f8f8a"/>
<rect x="12" y="23" width="1" height="1" fill="#3b7672"/>
<rect x="13" y="23" width="1" height="1" fill="#26564f"/>
<rect x="19" y="23" width="1" height="1" fill="#26564f"/>
<rect x="20" y="23" width="1" height="1" fill="#3b7672"/>
<rect x="21" y="23" width="16" height="1" fill="#4f8f8a"/>
<rect x="37" y="23" width="2" height="1" fill="#3b7672"/>
<rect x="39" y="23" width="2" height="1" fill="#26564f"/>
<rect x="44" y="23" width="3" height="1" fill="#4f8f8a"/>
<rect x="47" y="23" width="1" height="1" fill="#3b7672"/>
<rect x="48" y="23" width="1" height="1" fill="#26564f"/>
<rect x="50" y="23" width="4" height="1" fill="#c8b47c"/>
<rect x="56" y="23" width="1" height="1" fill="#3b7672"/>
<rect x="57" y="23" width="1" height="1" fill="#26564f"/>
<rect x="2" y="24" width="1" height="1" fill="#3b7672"/>
<rect x="3" y="24" width="1" height="1" fill="#26564f"/>
<rect x="6" y="24" width="4" height="1" fill="#a9cbc8"/>
<rect x="10" y="24" width="2" height="1" fill="#4f8f8a"/>
<rect x="12" y="24" width="1" height="1" fill="#3b7672"/>
<rect x="13" y="24" width="1" height="1" fill="#26564f"/>
<rect x="20" y="24" width="1" height="1" fill="#26564f"/>
<rect x="21" y="24" width="16" height="1" fill="#4f8f8a"/>
<rect x="37" y="24" width="1" height="1" fill="#3b7672"/>
<rect x="38" y="24" width="2" height="1" fill="#26564f"/>
<rect x="43" y="24" width="2" height="1" fill="#4f8f8a"/>
<rect x="45" y="24" width="3" height="1" fill="#3b7672"/>
<rect x="48" y="24" width="1" height="1" fill="#26564f"/>
<rect x="50" y="24" width="4" height="1" fill="#c8b47c"/>
<rect x="56" y="24" width="1" height="1" fill="#3b7672"/>
<rect x="57" y="24" width="1" height="1" fill="#26564f"/>
<rect x="2" y="25" width="1" height="1" fill="#4f8f8a"/>
<rect x="3" y="25" width="1" height="1" fill="#3b7672"/>
<rect x="4" y="25" width="1" height="1" fill="#26564f"/>
<rect x="6" y="25" width="4" height="1" fill="#a9cbc8"/>
<rect x="10" y="25" width="3" height="1" fill="#4f8f8a"/>
<rect x="13" y="25" width="1" height="1" fill="#3b7672"/>
<rect x="14" y="25" width="1" height="1" fill="#26564f"/>
<rect x="21" y="25" width="16" height="1" fill="#4f8f8a"/>
<rect x="37" y="25" width="1" height="1" fill="#3b7672"/>
<rect x="38" y="25" width="1" height="1" fill="#26564f"/>
<rect x="42" y="25" width="2" height="1" fill="#4f8f8a"/>
<rect x="44" y="25" width="2" height="1" fill="#3b7672"/>
<rect x="46" y="25" width="2" height="1" fill="#26564f"/>
<rect x="48" y="25" width="1" height="1" fill="#3b7672"/>
<rect x="49" y="25" width="1" height="1" fill="#26564f"/>
<rect x="50" y="25" width="4" height="1" fill="#c8b47c"/>
<rect x="55" y="25" width="1" height="1" fill="#4f8f8a"/>
<rect x="56" y="25" width="1" height="1" fill="#3b7672"/>
<rect x="57" y="25" width="1" height="1" fill="#26564f"/>
<rect x="2" y="26" width="1" height="1" fill="#4f8f8a"/>
<rect x="3" y="26" width="1" height="1" fill="#3b7672"/>
<rect x="4" y="26" width="1" height="1" fill="#26564f"/>
<rect x="8" y="26" width="4" height="1" fill="#3b7672"/>
<rect x="12" y="26" width="2" height="1" fill="#4f8f8a"/>
<rect x="14" y="26" width="1" height="1" fill="#3b7672"/>
<rect x="15" y="26" width="1" height="1" fill="#26564f"/>
<rect x="20" y="26" width="1" height="1" fill="#26564f"/>
<rect x="21" y="26" width="1" height="1" fill="#3b7672"/>
<rect x="22" y="26" width="14" height="1" fill="#4f8f8a"/>
<rect x="36" y="26" width="2" height="1" fill="#3b7672"/>
<rect x="38" y="26" width="2" height="1" fill="#26564f"/>
<rect x="41" y="26" width="3" height="1" fill="#4f8f8a"/>
<rect x="44" y="26" width="1" height="1" fill="#3b7672"/>
<rect x="45" y="26" width="2" height="1" fill="#26564f"/>
<rect x="48" y="26" width="1" height="1" fill="#26564f"/>
<rect x="49" y="26" width="2" height="1" fill="#3b7672"/>
<rect x="51" y="26" width="1" height="1" fill="#26564f"/>
<rect x="55" y="26" width="1" height="1" fill="#4f8f8a"/>
<rect x="56" y="26" width="1" height="1" fill="#3b7672"/>
<rect x="57" y="26" width="1" height="1" fill="#26564f"/>
<rect x="2" y="27" width="1" height="1" fill="#3b7672"/>
<rect x="3" y="27" width="1" height="1" fill="#4f8f8a"/>
<rect x="4" y="27" width="1" height="1" fill="#3b7672"/>
<rect x="5" y="27" width="1" height="1" fill="#26564f"/>
<rect x="7" y="27" width="5" height="1" fill="#26564f"/>
<rect x="12" y="27" width="3" height="1" fill="#4f8f8a"/>
<rect x="15" y="27" width="1" height="1" fill="#3b7672"/>
<rect x="16" y="27" width="1" height="1" fill="#26564f"/>
<rect x="21" y="27" width="1" height="1" fill="#26564f"/>
<rect x="22" y="27" width="14" height="1" fill="#4f8f8a"/>
<rect x="36" y="27" width="1" height="1" fill="#3b7672"/>
<rect x="37" y="27" width="2" height="1" fill="#26564f"/>
<rect x="40" y="27" width="3" height="1" fill="#4f8f8a"/>
<rect x="43" y="27" width="2" height="1" fill="#3b7672"/>
<rect x="45" y="27" width="1" height="1" fill="#26564f"/>
<rect x="49" y="27" width="4" height="1" fill="#26564f"/>
<rect x="54" y="27" width="1" height="1" fill="#4f8f8a"/>
<rect x="55" y="27" width="2" height="1" fill="#3b7672"/>
<rect x="57" y="27" width="1" height="1" fill="#26564f"/>
<rect x="2" y="28" width="1" height="1" fill="#26564f"/>
<rect x="3" y="28" width="2" height="1" fill="#4f8f8a"/>
<rect x="5" y="28" width="1" height="1" fill="#3b7672"/>
<rect x="6" y="28" width="1" height="1" fill="#26564f"/>
<rect x="12" y="28" width="1" height="1" fill="#3b7672"/>
<rect x="13" y="28" width="3" height="1" fill="#4f8f8a"/>
<rect x="16" y="28" width="1" height="1" fill="#3b7672"/>
<rect x="17" y="28" width="1" height="1" fill="#26564f"/>
<rect x="22" y="28" width="1" height="1" fill="#3b7672"/>
<rect x="23" y="28" width="13" height="1" fill="#4f8f8a"/>
<rect x="36" y="28" width="1" height="1" fill="#3b7672"/>
<rect x="37" y="28" width="1" height="1" fill="#26564f"/>
<rect x="39" y="28" width="3" height="1" fill="#4f8f8a"/>
<rect x="42" y="28" width="2" height="1" fill="#3b7672"/>
<rect x="44" y="28" width="2" height="1" fill="#26564f"/>
<rect x="53" y="28" width="2" height="1" fill="#4f8f8a"/>
<rect x="55" y="28" width="1" height="1" fill="#3b7672"/>
<rect x="56" y="28" width="2" height="1" fill="#26564f"/>
<rect x="3" y="29" width="2" height="1" fill="#4f8f8a"/>
<rect x="5" y="29" width="1" height="1" fill="#3b7672"/>
<rect x="6" y="29" width="1" height="1" fill="#26564f"/>
<rect x="12" y="29" width="1" height="1" fill="#26564f"/>
<rect x="13" y="29" width="1" height="1" fill="#3b7672"/>
<rect x="14" y="29" width="3" height="1" fill="#4f8f8a"/>
<rect x="17" y="29" width="1" height="1" fill="#3b7672"/>
<rect x="18" y="29" width="1" height="1" fill="#26564f"/>
<rect x="22" y="29" width="1" height="1" fill="#26564f"/>
<rect x="23" y="29" width="18" height="1" fill="#4f8f8a"/>
<rect x="41" y="29" width="2" height="1" fill="#3b7672"/>
<rect x="43" y="29" width="2" height="1" fill="#26564f"/>
<rect x="53" y="29" width="2" height="1" fill="#4f8f8a"/>
<rect x="55" y="29" width="1" height="1" fill="#3b7672"/>
<rect x="56" y="29" width="1" height="1" fill="#26564f"/>
<rect x="3" y="30" width="1" height="1" fill="#3b7672"/>
<rect x="4" y="30" width="1" height="1" fill="#4f8f8a"/>
<rect x="5" y="30" width="1" height="1" fill="#3b7672"/>
<rect x="6" y="30" width="1" height="1" fill="#26564f"/>
<rect x="13" y="30" width="1" height="1" fill="#26564f"/>
<rect x="14" y="30" width="1" height="1" fill="#3b7672"/>
<rect x="15" y="30" width="4" height="1" fill="#4f8f8a"/>
<rect x="19" y="30" width="1" height="1" fill="#3b7672"/>
<rect x="20" y="30" width="1" height="1" fill="#26564f"/>
<rect x="23" y="30" width="17" height="1" fill="#4f8f8a"/>
<rect x="40" y="30" width="2" height="1" fill="#3b7672"/>
<rect x="42" y="30" width="2" height="1" fill="#26564f"/>
<rect x="53" y="30" width="1" height="1" fill="#4f8f8a"/>
<rect x="54" y="30" width="2" height="1" fill="#3b7672"/>
<rect x="56" y="30" width="1" height="1" fill="#26564f"/>
<rect x="3" y="31" width="1" height="1" fill="#26564f"/>
<rect x="4" y="31" width="1" height="1" fill="#4f8f8a"/>
<rect x="5" y="31" width="1" height="1" fill="#3b7672"/>
<rect x="6" y="31" width="1" height="1" fill="#26564f"/>
<rect x="14" y="31" width="1" height="1" fill="#26564f"/>
<rect x="15" y="31" width="1" height="1" fill="#3b7672"/>
<rect x="16" y="31" width="23" height="1" fill="#4f8f8a"/>
<rect x="39" y="31" width="2" height="1" fill="#3b7672"/>
<rect x="41" y="31" width="2" height="1" fill="#26564f"/>
<rect x="53" y="31" width="1" height="1" fill="#4f8f8a"/>
<rect x="54" y="31" width="1" height="1" fill="#3b7672"/>
<rect x="55" y="31" width="2" height="1" fill="#26564f"/>
<rect x="4" y="32" width="2" height="1" fill="#4f8f8a"/>
<rect x="6" y="32" width="1" height="1" fill="#3b7672"/>
<rect x="7" y="32" width="1" height="1" fill="#26564f"/>
<rect x="15" y="32" width="1" height="1" fill="#26564f"/>
<rect x="16" y="32" width="1" height="1" fill="#3b7672"/>
<rect x="17" y="32" width="6" height="1" fill="#4f8f8a"/>
<rect x="23" y="32" width="3" height="1" fill="#7fb5b0"/>
<rect x="26" y="32" width="8" height="1" fill="#4f8f8a"/>
<rect x="34" y="32" width="3" height="1" fill="#7fb5b0"/>
<rect x="37" y="32" width="2" height="1" fill="#4f8f8a"/>
<rect x="39" y="32" width="1" height="1" fill="#3b7672"/>
<rect x="40" y="32" width="2" height="1" fill="#26564f"/>
<rect x="52" y="32" width="2" height="1" fill="#4f8f8a"/>
<rect x="54" y="32" width="1" height="1" fill="#3b7672"/>
<rect x="55" y="32" width="1" height="1" fill="#26564f"/>
<rect x="4" y="33" width="2" height="1" fill="#4f8f8a"/>
<rect x="6" y="33" width="1" height="1" fill="#3b7672"/>
<rect x="7" y="33" width="1" height="1" fill="#26564f"/>
<rect x="16" y="33" width="1" height="1" fill="#26564f"/>
<rect x="17" y="33" width="2" height="1" fill="#3b7672"/>
<rect x="19" y="33" width="3" height="1" fill="#4f8f8a"/>
<rect x="22" y="33" width="5" height="1" fill="#7fb5b0"/>
<rect x="27" y="33" width="6" height="1" fill="#4f8f8a"/>
<rect x="33" y="33" width="5" height="1" fill="#7fb5b0"/>
<rect x="38" y="33" width="1" height="1" fill="#4f8f8a"/>
<rect x="39" y="33" width="1" height="1" fill="#3b7672"/>
<rect x="40" y="33" width="1" height="1" fill="#26564f"/>
<rect x="52" y="33" width="2" height="1" fill="#4f8f8a"/>
<rect x="54" y="33" width="1" height="1" fill="#3b7672"/>
<rect x="55" y="33" width="1" height="1" fill="#26564f"/>
<rect x="4" y="34" width="1" height="1" fill="#3b7672"/>
<rect x="5" y="34" width="2" height="1" fill="#4f8f8a"/>
<rect x="7" y="34" width="1" height="1" fill="#3b7672"/>
<rect x="8" y="34" width="1" height="1" fill="#26564f"/>
<rect x="17" y="34" width="2" height="1" fill="#26564f"/>
<rect x="19" y="34" width="1" height="1" fill="#3b7672"/>
<rect x="20" y="34" width="2" height="1" fill="#4f8f8a"/>
<rect x="22" y="34" width="1" height="1" fill="#7fb5b0"/>
<rect x="23" y="34" width="3" height="1" fill="#0d3b38"/>
<rect x="26" y="34" width="1" height="1" fill="#7fb5b0"/>
<rect x="27" y="34" width="6" height="1" fill="#4f8f8a"/>
<rect x="33" y="34" width="1" height="1" fill="#7fb5b0"/>
<rect x="34" y="34" width="3" height="1" fill="#0d3b38"/>
<rect x="37" y="34" width="1" height="1" fill="#7fb5b0"/>
<rect x="38" y="34" width="2" height="1" fill="#3b7672"/>
<rect x="40" y="34" width="1" height="1" fill="#26564f"/>
<rect x="51" y="34" width="2" height="1" fill="#4f8f8a"/>
<rect x="53" y="34" width="2" height="1" fill="#3b7672"/>
<rect x="55" y="34" width="1" height="1" fill="#26564f"/>
<rect x="4" y="35" width="1" height="1" fill="#26564f"/>
<rect x="5" y="35" width="3" height="1" fill="#4f8f8a"/>
<rect x="8" y="35" width="1" height="1" fill="#3b7672"/>
<rect x="9" y="35" width="1" height="1" fill="#26564f"/>
<rect x="19" y="35" width="1" height="1" fill="#26564f"/>
<rect x="20" y="35" width="3" height="1" fill="#4f8f8a"/>
<rect x="23" y="35" width="3" height="1" fill="#3b7672"/>
<rect x="26" y="35" width="8" height="1" fill="#4f8f8a"/>
<rect x="34" y="35" width="3" height="1" fill="#3b7672"/>
<rect x="37" y="35" width="1" height="1" fill="#4f8f8a"/>
<rect x="38" y="35" width="1" height="1" fill="#3b7672"/>
<rect x="39" y="35" width="2" height="1" fill="#26564f"/>
<rect x="50" y="35" width="3" height="1" fill="#4f8f8a"/>
<rect x="53" y="35" width="1" height="1" fill="#3b7672"/>
<rect x="54" y="35" width="2" height="1" fill="#26564f"/>
<rect x="5" y="36" width="1" height="1" fill="#3b7672"/>
<rect x="6" y="36" width="3" height="1" fill="#4f8f8a"/>
<rect x="9" y="36" width="1" height="1" fill="#3b7672"/>
<rect x="10" y="36" width="1" height="1" fill="#26564f"/>
<rect x="20" y="36" width="18" height="1" fill="#4f8f8a"/>
<rect x="38" y="36" width="1" height="1" fill="#3b7672"/>
<rect x="39" y="36" width="1" height="1" fill="#26564f"/>
<rect x="49" y="36" width="3" height="1" fill="#4f8f8a"/>
<rect x="52" y="36" width="2" height="1" fill="#3b7672"/>
<rect x="54" y="36" width="1" height="1" fill="#26564f"/>
<rect x="5" y="37" width="1" height="1" fill="#26564f"/>
<rect x="6" y="37" width="1" height="1" fill="#3b7672"/>
<rect x="7" y="37" width="44" height="1" fill="#4f8f8a"/>
<rect x="51" y="37" width="2" height="1" fill="#3b7672"/>
<rect x="53" y="37" width="2" height="1" fill="#26564f"/>
<rect x="6" y="38" width="1" height="1" fill="#26564f"/>
<rect x="7" y="38" width="2" height="1" fill="#3b7672"/>
<rect x="9" y="38" width="40" height="1" fill="#4f8f8a"/>
<rect x="49" y="38" width="3" height="1" fill="#3b7672"/>
<rect x="52" y="38" width="2" height="1" fill="#26564f"/>
<rect x="7" y="39" width="2" height="1" fill="#26564f"/>
<rect x="9" y="39" width="2" height="1" fill="#3b7672"/>
<rect x="11" y="39" width="36" height="1" fill="#4f8f8a"/>
<rect x="47" y="39" width="3" height="1" fill="#3b7672"/>
<rect x="50" y="39" width="3" height="1" fill="#26564f"/>
<rect x="9" y="40" width="2" height="1" fill="#26564f"/>
<rect x="11" y="40" width="2" height="1" fill="#3b7672"/>
<rect x="13" y="40" width="32" height="1" fill="#4f8f8a"/>
<rect x="45" y="40" width="3" height="1" fill="#3b7672"/>
<rect x="48" y="40" width="3" height="1" fill="#26564f"/>
<rect x="11" y="41" width="2" height="1" fill="#26564f"/>
<rect x="13" y="41" width="3" height="1" fill="#3b7672"/>
<rect x="16" y="41" width="26" height="1" fill="#4f8f8a"/>
<rect x="42" y="41" width="4" height="1" fill="#3b7672"/>
<rect x="46" y="41" width="3" height="1" fill="#26564f"/>
<rect x="13" y="42" width="3" height="1" fill="#26564f"/>
<rect x="16" y="42" width="26" height="1" fill="#4f8f8a"/>
<rect x="42" y="42" width="1" height="1" fill="#3b7672"/>
<rect x="43" y="42" width="4" height="1" fill="#26564f"/>
<rect x="16" y="43" width="4" height="1" fill="#4f8f8a"/>
<rect x="20" y="43" width="4" height="1" fill="#3b7672"/>
<rect x="24" y="43" width="10" height="1" fill="#4f8f8a"/>
<rect x="34" y="43" width="3" height="1" fill="#3b7672"/>
<rect x="37" y="43" width="5" height="1" fill="#4f8f8a"/>
<rect x="42" y="43" width="1" height="1" fill="#3b7672"/>
<rect x="43" y="43" width="1" height="1" fill="#26564f"/>
<rect x="6" y="44" width="2" height="1" fill="#4f8f8a"/>
<rect x="8" y="44" width="1" height="1" fill="#3b7672"/>
<rect x="9" y="44" width="1" height="1" fill="#26564f"/>
<rect x="15" y="44" width="4" height="1" fill="#4f8f8a"/>
<rect x="19" y="44" width="2" height="1" fill="#3b7672"/>
<rect x="21" y="44" width="3" height="1" fill="#26564f"/>
<rect x="24" y="44" width="4" height="1" fill="#4f8f8a"/>
<rect x="28" y="44" width="3" height="1" fill="#3b7672"/>
<rect x="31" y="44" width="3" height="1" fill="#4f8f8a"/>
<rect x="34" y="44" width="1" height="1" fill="#3b7672"/>
<rect x="35" y="44" width="2" height="1" fill="#26564f"/>
<rect x="37" y="44" width="2" height="1" fill="#3b7672"/>
<rect x="39" y="44" width="4" height="1" fill="#4f8f8a"/>
<rect x="43" y="44" width="1" height="1" fill="#3b7672"/>
<rect x="44" y="44" width="1" height="1" fill="#26564f"/>
<rect x="5" y="45" width="6" height="1" fill="#3b7672"/>
<rect x="11" y="45" width="1" height="1" fill="#26564f"/>
<rect x="14" y="45" width="4" height="1" fill="#4f8f8a"/>
<rect x="18" y="45" width="2" height="1" fill="#3b7672"/>
<rect x="20" y="45" width="2" height="1" fill="#26564f"/>
<rect x="24" y="45" width="3" height="1" fill="#4f8f8a"/>
<rect x="27" y="45" width="2" height="1" fill="#3b7672"/>
<rect x="29" y="45" width="2" height="1" fill="#26564f"/>
<rect x="31" y="45" width="3" height="1" fill="#4f8f8a"/>
<rect x="34" y="45" width="1" height="1" fill="#3b7672"/>
<rect x="35" y="45" width="1" height="1" fill="#26564f"/>
<rect x="37" y="45" width="2" height="1" fill="#26564f"/>
<rect x="39" y="45" width="2" height="1" fill="#3b7672"/>
<rect x="41" y="45" width="4" height="1" fill="#4f8f8a"/>
<rect x="45" y="45" width="1" height="1" fill="#3b7672"/>
<rect x="46" y="45" width="1" height="1" fill="#26564f"/>
<rect x="4" y="46" width="1" height="1" fill="#3b7672"/>
<rect x="5" y="46" width="5" height="1" fill="#26564f"/>
<rect x="10" y="46" width="1" height="1" fill="#3b7672"/>
<rect x="11" y="46" width="7" height="1" fill="#4f8f8a"/>
<rect x="18" y="46" width="1" height="1" fill="#3b7672"/>
<rect x="19" y="46" width="2" height="1" fill="#26564f"/>
<rect x="24" y="46" width="3" height="1" fill="#4f8f8a"/>
<rect x="27" y="46" width="1" height="1" fill="#3b7672"/>
<rect x="28" y="46" width="2" height="1" fill="#26564f"/>
<rect x="31" y="46" width="3" height="1" fill="#4f8f8a"/>
<rect x="34" y="46" width="1" height="1" fill="#3b7672"/>
<rect x="35" y="46" width="1" height="1" fill="#26564f"/>
<rect x="39" y="46" width="2" height="1" fill="#26564f"/>
<rect x="41" y="46" width="1" height="1" fill="#3b7672"/>
<rect x="42" y="46" width="4" height="1" fill="#4f8f8a"/>
<rect x="46" y="46" width="1" height="1" fill="#3b7672"/>
<rect x="47" y="46" width="1" height="1" fill="#26564f"/>
<rect x="4" y="47" width="1" height="1" fill="#3b7672"/>
<rect x="5" y="47" width="1" height="1" fill="#26564f"/>
<rect x="6" y="47" width="1" height="1" fill="#fbefdc"/>
<rect x="7" y="47" width="3" height="1" fill="#f3c6b6"/>
<rect x="10" y="47" width="1" height="1" fill="#26564f"/>
<rect x="11" y="47" width="7" height="1" fill="#4f8f8a"/>
<rect x="18" y="47" width="1" height="1" fill="#3b7672"/>
<rect x="19" y="47" width="1" height="1" fill="#26564f"/>
<rect x="23" y="47" width="4" height="1" fill="#4f8f8a"/>
<rect x="27" y="47" width="1" height="1" fill="#3b7672"/>
<rect x="28" y="47" width="1" height="1" fill="#26564f"/>
<rect x="31" y="47" width="3" height="1" fill="#4f8f8a"/>
<rect x="34" y="47" width="1" height="1" fill="#3b7672"/>
<rect x="35" y="47" width="1" height="1" fill="#26564f"/>
<rect x="41" y="47" width="1" height="1" fill="#26564f"/>
<rect x="42" y="47" width="2" height="1" fill="#3b7672"/>
<rect x="44" y="47" width="6" height="1" fill="#4f8f8a"/>
<rect x="50" y="47" width="1" height="1" fill="#3b7672"/>
<rect x="51" y="47" width="1" height="1" fill="#26564f"/>
<rect x="4" y="48" width="2" height="1" fill="#26564f"/>
<rect x="6" y="48" width="4" height="1" fill="#f3c6b6"/>
<rect x="11" y="48" width="4" height="1" fill="#4f8f8a"/>
<rect x="15" y="48" width="5" height="1" fill="#3b7672"/>
<rect x="20" y="48" width="1" height="1" fill="#26564f"/>
<rect x="23" y="48" width="11" height="1" fill="#4f8f8a"/>
<rect x="34" y="48" width="1" height="1" fill="#3b7672"/>
<rect x="35" y="48" width="2" height="1" fill="#26564f"/>
<rect x="42" y="48" width="2" height="1" fill="#26564f"/>
<rect x="44" y="48" width="2" height="1" fill="#3b7672"/>
<rect x="46" y="48" width="6" height="1" fill="#4f8f8a"/>
<rect x="52" y="48" width="1" height="1" fill="#3b7672"/>
<rect x="53" y="48" width="1" height="1" fill="#26564f"/>
<rect x="6" y="49" width="4" height="1" fill="#f3c6b6"/>
<rect x="10" y="49" width="4" height="1" fill="#4f8f8a"/>
<rect x="14" y="49" width="2" height="1" fill="#3b7672"/>
<rect x="16" y="49" width="4" height="1" fill="#26564f"/>
<rect x="20" y="49" width="6" height="1" fill="#4f8f8a"/>
<rect x="26" y="49" width="5" height="1" fill="#3b7672"/>
<rect x="31" y="49" width="3" height="1" fill="#4f8f8a"/>
<rect x="34" y="49" width="1" height="1" fill="#3b7672"/>
<rect x="35" y="49" width="1" height="1" fill="#26564f"/>
<rect x="44" y="49" width="2" height="1" fill="#26564f"/>
<rect x="46" y="49" width="6" height="1" fill="#4f8f8a"/>
<rect x="52" y="49" width="1" height="1" fill="#3b7672"/>
<rect x="53" y="49" width="2" height="1" fill="#26564f"/>
<rect x="6" y="50" width="4" height="1" fill="#f3c6b6"/>
<rect x="10" y="50" width="4" height="1" fill="#4f8f8a"/>
<rect x="14" y="50" width="1" height="1" fill="#3b7672"/>
<rect x="15" y="50" width="1" height="1" fill="#26564f"/>
<rect x="16" y="50" width="1" height="1" fill="#fbefdc"/>
<rect x="17" y="50" width="3" height="1" fill="#b07a8a"/>
<rect x="20" y="50" width="3" height="1" fill="#4f8f8a"/>
<rect x="23" y="50" width="4" height="1" fill="#3b7672"/>
<rect x="27" y="50" width="4" height="1" fill="#26564f"/>
<rect x="31" y="50" width="3" height="1" fill="#4f8f8a"/>
<rect x="34" y="50" width="1" height="1" fill="#3b7672"/>
<rect x="35" y="50" width="1" height="1" fill="#26564f"/>
<rect x="46" y="50" width="1" height="1" fill="#4f8f8a"/>
<rect x="47" y="50" width="2" height="1" fill="#3b7672"/>
<rect x="49" y="50" width="1" height="1" fill="#fbefdc"/>
<rect x="50" y="50" width="3" height="1" fill="#8fa35a"/>
<rect x="53" y="50" width="1" height="1" fill="#26564f"/>
<rect x="5" y="51" width="5" height="1" fill="#4f8f8a"/>
<rect x="10" y="51" width="3" height="1" fill="#3b7672"/>
<rect x="13" y="51" width="1" height="1" fill="#4f8f8a"/>
<rect x="14" y="51" width="1" height="1" fill="#3b7672"/>
<rect x="15" y="51" width="1" height="1" fill="#26564f"/>
<rect x="16" y="51" width="4" height="1" fill="#b07a8a"/>
<rect x="20" y="51" width="2" height="1" fill="#4f8f8a"/>
<rect x="22" y="51" width="2" height="1" fill="#3b7672"/>
<rect x="24" y="51" width="2" height="1" fill="#26564f"/>
<rect x="26" y="51" width="1" height="1" fill="#3b7672"/>
<rect x="27" y="51" width="1" height="1" fill="#26564f"/>
<rect x="28" y="51" width="1" height="1" fill="#c8b47c"/>
<rect x="29" y="51" width="3" height="1" fill="#fbefdc"/>
<rect x="32" y="51" width="1" height="1" fill="#4f8f8a"/>
<rect x="33" y="51" width="2" height="1" fill="#3b7672"/>
<rect x="35" y="51" width="1" height="1" fill="#26564f"/>
<rect x="46" y="51" width="1" height="1" fill="#4f8f8a"/>
<rect x="47" y="51" width="1" height="1" fill="#3b7672"/>
<rect x="48" y="51" width="1" height="1" fill="#26564f"/>
<rect x="49" y="51" width="4" height="1" fill="#8fa35a"/>
<rect x="53" y="51" width="1" height="1" fill="#26564f"/>
<rect x="4" y="52" width="1" height="1" fill="#3b7672"/>
<rect x="5" y="52" width="3" height="1" fill="#4f8f8a"/>
<rect x="8" y="52" width="3" height="1" fill="#3b7672"/>
<rect x="11" y="52" width="2" height="1" fill="#26564f"/>
<rect x="13" y="52" width="1" height="1" fill="#4f8f8a"/>
<rect x="14" y="52" width="1" height="1" fill="#3b7672"/>
<rect x="15" y="52" width="1" height="1" fill="#26564f"/>
<rect x="16" y="52" width="4" height="1" fill="#b07a8a"/>
<rect x="20" y="52" width="1" height="1" fill="#4f8f8a"/>
<rect x="21" y="52" width="2" height="1" fill="#3b7672"/>
<rect x="23" y="52" width="2" height="1" fill="#26564f"/>
<rect x="26" y="52" width="2" height="1" fill="#26564f"/>
<rect x="28" y="52" width="4" height="1" fill="#fbefdc"/>
<rect x="32" y="52" width="1" height="1" fill="#4f8f8a"/>
<rect x="33" y="52" width="1" height="1" fill="#3b7672"/>
<rect x="34" y="52" width="2" height="1" fill="#26564f"/>
<rect x="46" y="52" width="2" height="1" fill="#3b7672"/>
<rect x="48" y="52" width="1" height="1" fill="#26564f"/>
<rect x="49" y="52" width="4" height="1" fill="#8fa35a"/>
<rect x="53" y="52" width="1" height="1" fill="#3b7672"/>
<rect x="54" y="52" width="1" height="1" fill="#26564f"/>
<rect x="4" y="53" width="1" height="1" fill="#26564f"/>
<rect x="5" y="53" width="4" height="1" fill="#3b7672"/>
<rect x="9" y="53" width="3" height="1" fill="#26564f"/>
<rect x="13" y="53" width="1" height="1" fill="#3b7672"/>
<rect x="14" y="53" width="2" height="1" fill="#4f8f8a"/>
<rect x="16" y="53" width="4" height="1" fill="#b07a8a"/>
<rect x="20" y="53" width="2" height="1" fill="#3b7672"/>
<rect x="22" y="53" width="2" height="1" fill="#26564f"/>
<rect x="28" y="53" width="4" height="1" fill="#fbefdc"/>
<rect x="32" y="53" width="2" height="1" fill="#3b7672"/>
<rect x="34" y="53" width="1" height="1" fill="#26564f"/>
<rect x="46" y="53" width="1" height="1" fill="#26564f"/>
<rect x="47" y="53" width="1" height="1" fill="#4f8f8a"/>
<rect x="48" y="53" width="1" height="1" fill="#3b7672"/>
<rect x="49" y="53" width="4" height="1" fill="#8fa35a"/>
<rect x="53" y="53" width="2" height="1" fill="#3b7672"/>
<rect x="55" y="53" width="1" height="1" fill="#26564f"/>
<rect x="5" y="54" width="5" height="1" fill="#26564f"/>
<rect x="13" y="54" width="1" height="1" fill="#26564f"/>
<rect x="14" y="54" width="1" height="1" fill="#3b7672"/>
<rect x="15" y="54" width="1" height="1" fill="#4f8f8a"/>
<rect x="16" y="54" width="4" height="1" fill="#3b7672"/>
<rect x="20" y="54" width="3" height="1" fill="#26564f"/>
<rect x="27" y="54" width="1" height="1" fill="#4f8f8a"/>
<rect x="28" y="54" width="4" height="1" fill="#fbefdc"/>
<rect x="32" y="54" width="1" height="1" fill="#3b7672"/>
<rect x="33" y="54" width="2" height="1" fill="#26564f"/>
<rect x="47" y="54" width="2" height="1" fill="#3b7672"/>
<rect x="49" y="54" width="3" height="1" fill="#4f8f8a"/>
<rect x="52" y="54" width="2" height="1" fill="#3b7672"/>
<rect x="54" y="54" width="2" height="1" fill="#26564f"/>
<rect x="14" y="55" width="1" height="1" fill="#26564f"/>
<rect x="15" y="55" width="2" height="1" fill="#3b7672"/>
<rect x="17" y="55" width="4" height="1" fill="#26564f"/>
<rect x="26" y="55" width="1" height="1" fill="#3b7672"/>
<rect x="27" y="55" width="4" height="1" fill="#4f8f8a"/>
<rect x="31" y="55" width="2" height="1" fill="#3b7672"/>
<rect x="33" y="55" width="1" height="1" fill="#26564f"/>
<rect x="47" y="55" width="2" height="1" fill="#26564f"/>
<rect x="49" y="55" width="4" height="1" fill="#3b7672"/>
<rect x="53" y="55" width="2" height="1" fill="#26564f"/>
<rect x="15" y="56" width="3" height="1" fill="#26564f"/>
<rect x="26" y="56" width="1" height="1" fill="#26564f"/>
<rect x="27" y="56" width="5" height="1" fill="#3b7672"/>
<rect x="32" y="56" width="2" height="1" fill="#26564f"/>
<rect x="49" y="56" width="5" height="1" fill="#26564f"/>
<rect x="27" y="57" width="6" height="1" fill="#26564f"/>
</svg>
