<svg xmlns="http://www.w3.org/2000/svg" viewBox="0 0 52 52" width="416" height="416" shape-rendering="crispEdges">
<!-- OmniQueue octopus, generated by tools/make_logo.py -->
<rect width="52" height="52" rx="8.7" fill="#073a34"/>
<rect x="7" y="2" width="3" height="1" fill="#e2856c"/>
<rect x="6" y="3" width="1" height="1" fill="#e2856c"/>
<rect x="7" y="3" width="1" height="1" fill="#fbefdc"/>
<rect x="8" y="3" width="3" height="1" fill="#e2856c"/>
<rect x="22" y="3" width="4" height="1" fill="#7fb5b0"/>
<rect x="26" y="3" width="2" height="1" fill="#4f8f8a"/>
<rect x="28" y="3" width="1" height="1" fill="#3b7672"/>
<rect x="29" y="3" width="1" height="1" fill="#26564f"/>
<rect x="6" y="4" width="5" height="1" fill="#e2856c"/>
<rect x="20" y="4" width="6" height="1" fill="#7fb5b0"/>
<rect x="26" y="4" width="4" height="1" fill="#4f8f8a"/>
<rect x="30" y="4" width="1" height="1" fill="#3b7672"/>
<rect x="31" y="4" width="1" height="1" fill="#26564f"/>
<rect x="46" y="4" width="2" height="1" fill="#b39a4b"/>
<rect x="6" y="5" width="5" height="1" fill="#e2856c"/>
<rect x="18" y="5" width="4" height="1" fill="#7fb5b0"/>
<rect x="22" y="5" width="10" height="1" fill="#4f8f8a"/>
<rect x="32" y="5" width="1" height="1" fill="#3b7672"/>
<rect x="33" y="5" width="1" height="1" fill="#26564f"/>
<rect x="45" y="5" width="1" height="1" fill="#fbefdc"/>
<rect x="46" y="5" width="3" height="1" fill="#b39a4b"/>
<rect x="6" y="6" width="1" height="1" fill="#7fb5b0"/>
<rect x="7" y="6" width="3" height="1" fill="#e2856c"/>
<rect x="17" y="6" width="3" height="1" fill="#7fb5b0"/>
<rect x="20" y="6" width="4" height="1" fill="#4f8f8a"/>
<rect x="24" y="6" width="2" height="1" fill="#7fb5b0"/>
<rect x="26" y="6" width="7" height="1" fill="#4f8f8a"/>
<rect x="33" y="6" width="1" height="1" fill="#3b7672"/>
<rect x="34" y="6" width="1" height="1" fill="#26564f"/>
<rect x="44" y="6" width="6" height="1" fill="#b39a4b"/>
<rect x="6" y="7" width="1" height="1" fill="#7fb5b0"/>
<rect x="7" y="7" width="1" height="1" fill="#3b7672"/>
<rect x="8" y="7" width="1" height="1" fill="#26564f"/>
<rect x="16" y="7" width="2" height="1" fill="#7fb5b0"/>
<rect x="18" y="7" width="5" height="1" fill="#4f8f8a"/>
<rect x="23" y="7" width="1" height="1" fill="#7fb5b0"/>
<rect x="24" y="7" width="10" height="1" fill="#4f8f8a"/>
<rect x="34" y="7" width="1" height="1" fill="#3b7672"/>
<rect x="35" y="7" width="1" height="1" fill="#26564f"/>
<rect x="44" y="7" width="6" height="1" fill="#b39a4b"/>
<rect x="6" y="8" width="1" height="1" fill="#7fb5b0"/>
<rect x="7" y="8" width="1" height="1" fill="#3b7672"/>
<rect x="8" y="8" width="1" height="1" fill="#26564f"/>
<rect x="16" y="8" width="2" height="1" fill="#7fb5b0"/>
<rect x="18" y="8" width="4" height="1" fill="#4f8f8a"/>
<rect x="22" y="8" width="1" height="1" fill="#7fb5b0"/>
<rect x="23" y="8" width="11" height="1" fill="#4f8f8a"/>
<rect x="34" y="8" width="1" height="1" fill="#3b7672"/>
<rect x="35" y="8" width="1" height="1" fill="#26564f"/>
<rect x="44" y="8" width="1" height="1" fill="#4f8f8a"/>
<rect x="45" y="8" width="4" height="1" fill="#b39a4b"/>
<rect x="6" y="9" width="1" height="1" fill="#7fb5b0"/>
<rect x="7" y="9" width="1" height="1" fill="#3b7672"/>
<rect x="8" y="9" width="1" height="1" fill="#26564f"/>
<rect x="15" y="9" width="2" height="1" fill="#7fb5b0"/>
<rect x="17" y="9" width="4" height="1" fill="#4f8f8a"/>
<rect x="21" y="9" width="1" height="1" fill="#7fb5b0"/>
<rect x="22" y="9" width="13" height="1" fill="#4f8f8a"/>
<rect x="35" y="9" width="1" height="1" fill="#3b7672"/>
<rect x="36" y="9" width="1" height="1" fill="#26564f"/>
<rect x="44" y="9" width="1" height="1" fill="#4f8f8a"/>
<rect x="45" y="9" width="1" height="1" fill="#3b7672"/>
<rect x="46" y="9" width="2" height="1" fill="#b39a4b"/>
<rect x="5" y="10" width="2" height="1" fill="#7fb5b0"/>
<rect x="7" y="10" width="1" height="1" fill="#3b7672"/>
<rect x="8" y="10" width="1" height="1" fill="#26564f"/>
<rect x="15" y="10" width="2" height="1" fill="#7fb5b0"/>
<rect x="17" y="10" width="3" height="1" fill="#4f8f8a"/>
<rect x="20" y="10" width="1" height="1" fill="#7fb5b0"/>
<rect x="21" y="10" width="14" height="1" fill="#4f8f8a"/>
<rect x="35" y="10" width="1" height="1" fill="#3b7672"/>
<rect x="36" y="10" width="1" height="1" fill="#26564f"/>
<rect x="44" y="10" width="1" height="1" fill="#4f8f8a"/>
<rect x="45" y="10" width="1" height="1" fill="#3b7672"/>
<rect x="46" y="10" width="1" height="1" fill="#26564f"/>
<rect x="5" y="11" width="2" height="1" fill="#7fb5b0"/>
<rect x="7" y="11" width="1" height="1" fill="#3b7672"/>
<rect x="8" y="11" width="1" height="1" fill="#26564f"/>
<rect x="15" y="11" width="2" height="1" fill="#7fb5b0"/>
<rect x="17" y="11" width="18" height="1" fill="#4f8f8a"/>
<rect x="35" y="11" width="1" height="1" fill="#3b7672"/>
<rect x="36" y="11" width="1" height="1" fill="#26564f"/>
<rect x="44" y="11" width="1" height="1" fill="#4f8f8a"/>
<rect x="45" y="11" width="1" height="1" fill="#3b7672"/>
<rect x="46" y="11" width="1" height="1" fill="#26564f"/>
<rect x="5" y="12" width="2" height="1" fill="#7fb5b0"/>
<rect x="7" y="12" width="1" height="1" fill="#4f8f8a"/>
<rect x="8" y="12" width="1" height="1" fill="#3b7672"/>
<rect x="9" y="12" width="1" height="1" fill="#26564f"/>
<rect x="15" y="12" width="2" height="1" fill="#7fb5b0"/>
<rect x="17" y="12" width="2" height="1" fill="#4f8f8a"/>
<rect x="19" y="12" width="1" height="1" fill="#7fb5b0"/>
<rect x="20" y="12" width="15" height="1" fill="#4f8f8a"/>
<rect x="35" y="12" width="1" height="1" fill="#3b7672"/>
<rect x="36" y="12" width="1" height="1" fill="#26564f"/>
<rect x="42" y="12" width="3" height="1" fill="#4f8f8a"/>
<rect x="45" y="12" width="1" height="1" fill="#3b7672"/>
<rect x="46" y="12" width="1" height="1" fill="#26564f"/>
<rect x="5" y="13" width="1" height="1" fill="#3b7672"/>
<rect x="6" y="13" width="1" height="1" fill="#7fb5b0"/>
<rect x="7" y="13" width="1" height="1" fill="#4f8f8a"/>
<rect x="8" y="13" width="1" height="1" fill="#3b7672"/>
<rect x="9" y="13" width="1" height="1" fill="#26564f"/>
<rect x="15" y="13" width="2" height="1" fill="#7fb5b0"/>
<rect x="17" y="13" width="2" height="1" fill="#4f8f8a"/>
<rect x="19" y="13" width="1" height="1" fill="#7fb5b0"/>
<rect x="20" y="13" width="15" height="1" fill="#4f8f8a"/>
<rect x="35" y="13" width="1" height="1" fill="#3b7672"/>
<rect x="36" y="13" width="1" height="1" fill="#26564f"/>
<rect x="42" y="13" width="2" height="1" fill="#4f8f8a"/>
<rect x="44" y="13" width="2" height="1" fill="#3b7672"/>
<rect x="46" y="13" width="1" height="1" fill="#26564f"/>
<rect x="5" y="14" width="1" height="1" fill="#26564f"/>
<rect x="6" y="14" width="1" height="1" fill="#7fb5b0"/>
<rect x="7" y="14" width="1" height="1" fill="#4f8f8a"/>
<rect x="8" y="14" width="1" height="1" fill="#3b7672"/>
<rect x="9" y="14" width="1" height="1" fill="#26564f"/>
<rect x="15" y="14" width="1" height="1" fill="#3b7672"/>
<rect x="16" y="14" width="1" height="1" fill="#7fb5b0"/>
<rect x="17" y="14" width="17" height="1" fill="#4f8f8a"/>
<rect x="34" y="14" width="2" height="1" fill="#3b7672"/>
<rect x="36" y="14" width="1" height="1" fill="#26564f"/>
<rect x="42" y="14" width="2" height="1" fill="#4f8f8a"/>
<rect x="44" y="14" width="1" height="1" fill="#3b7672"/>
<rect x="45" y="14" width="2" height="1" fill="#26564f"/>
<rect x="6" y="15" width="2" height="1" fill="#7fb5b0"/>
<rect x="8" y="15" width="1" height="1" fill="#4f8f8a"/>
<rect x="9" y="15" width="1" height="1" fill="#3b7672"/>
<rect x="10" y="15" width="1" height="1" fill="#26564f"/>
<rect x="15" y="15" width="1" height="1" fill="#26564f"/>
<rect x="16" y="15" width="1" height="1" fill="#7fb5b0"/>
<rect x="17" y="15" width="17" height="1" fill="#4f8f8a"/>
<rect x="34" y="15" width="1" height="1" fill="#3b7672"/>
<rect x="35" y="15" width="2" height="1" fill="#26564f"/>
<rect x="41" y="15" width="3" height="1" fill="#4f8f8a"/>
<rect x="44" y="15" width="1" height="1" fill="#3b7672"/>
<rect x="45" y="15" width="1" height="1" fill="#26564f"/>
<rect x="6" y="16" width="1" height="1" fill="#3b7672"/>
<rect x="7" y="16" width="1" height="1" fill="#7fb5b0"/>
<rect x="8" y="16" width="1" height="1" fill="#4f8f8a"/>
<rect x="9" y="16" width="1" height="1" fill="#3b7672"/>
<rect x="10" y="16" width="1" height="1" fill="#26564f"/>
<rect x="16" y="16" width="1" height="1" fill="#3b7672"/>
<rect x="17" y="16" width="1" height="1" fill="#7fb5b0"/>
<rect x="18" y="16" width="15" height="1" fill="#4f8f8a"/>
<rect x="33" y="16" width="2" height="1" fill="#3b7672"/>
<rect x="35" y="16" width="1" height="1" fill="#26564f"/>
<rect x="40" y="16" width="3" height="1" fill="#4f8f8a"/>
<rect x="43" y="16" width="2" height="1" fill="#3b7672"/>
<rect x="45" y="16" width="1" height="1" fill="#26564f"/>
<rect x="3" y="17" width="3" height="1" fill="#a9cbc8"/>
<rect x="6" y="17" width="1" height="1" fill="#26564f"/>
<rect x="7" y="17" width="3" height="1" fill="#4f8f8a"/>
<rect x="10" y="17" width="1" height="1" fill="#3b7672"/>
<rect x="11" y="17" width="1" height="1" fill="#26564f"/>
<rect x="16" y="17" width="1" height="1" fill="#26564f"/>
<rect x="17" y="17" width="1" height="1" fill="#3b7672"/>
<rect x="18" y="17" width="14" height="1" fill="#4f8f8a"/>
<rect x="32" y="17" width="2" height="1" fill="#3b7672"/>
<rect x="34" y="17" width="2" height="1" fill="#26564f"/>
<rect x="39" y="17" width="4" height="1" fill="#4f8f8a"/>
<rect x="43" y="17" width="1" height="1" fill="#3b7672"/>
<rect x="44" y="17" width="2" height="1" fill="#26564f"/>
<rect x="2" y="18" width="1" height="1" fill="#a9cbc8"/>
<rect x="3" y="18" width="1" height="1" fill="#fbefdc"/>
<rect x="4" y="18" width="3" height="1" fill="#a9cbc8"/>
<rect x="7" y="18" width="1" height="1" fill="#3b7672"/>
<rect x="8" y="18" width="4" height="1" fill="#4f8f8a"/>
<rect x="12" y="18" width="1" height="1" fill="#3b7672"/>
<rect x="13" y="18" width="1" height="1" fill="#26564f"/>
<rect x="17" y="18" width="1" height="1" fill="#26564f"/>
<rect x="18" y="18" width="1" height="1" fill="#3b7672"/>
<rect x="19" y="18" width="12" height="1" fill="#4f8f8a"/>
<rect x="31" y="18" width="2" height="1" fill="#3b7672"/>
<rect x="33" y="18" width="2" height="1" fill="#26564f"/>
<rect x="38" y="18" width="4" height="1" fill="#4f8f8a"/>
<rect x="42" y="18" width="2" height="1" fill="#3b7672"/>
<rect x="44" y="18" width="1" height="1" fill="#26564f"/>
<rect x="2" y="19" width="5" height="1" fill="#a9cbc8"/>
<rect x="7" y="19" width="1" height="1" fill="#26564f"/>
<rect x="8" y="19" width="5" height="1" fill="#4f8f8a"/>
<rect x="13" y="19" width="1" height="1" fill="#3b7672"/>
<rect x="14" y="19" width="1" height="1" fill="#26564f"/>
<rect x="18" y="19" width="1" height="1" fill="#26564f"/>
<rect x="19" y="19" width="12" height="1" fill="#4f8f8a"/>
<rect x="31" y="19" width="1" height="1" fill="#3b7672"/>
<rect x="32" y="19" width="2" height="1" fill="#26564f"/>
<rect x="37" y="19" width="4" height="1" fill="#4f8f8a"/>
<rect x="41" y="19" width="2" height="1" fill="#3b7672"/>
<rect x="43" y="19" width="2" height="1" fill="#26564f"/>
<rect x="2" y="20" width="5" height="1" fill="#a9cbc8"/>
<rect x="8" y="20" width="1" height="1" fill="#3b7672"/>
<rect x="9" y="20" width="4" height="1" fill="#4f8f8a"/>
<rect x="13" y="20" width="1" height="1" fill="#3b7672"/>
<rect x="14" y="20" width="1" height="1" fill="#26564f"/>
<rect x="19" y="20" width="1" height="1" fill="#3b7672"/>
<rect x="20" y="20" width="11" height="1" fill="#4f8f8a"/>
<rect x="31" y="20" width="1" height="1" fill="#3b7672"/>
<rect x="32" y="20" width="1" height="1" fill="#26564f"/>
<rect x="35" y="20" width="6" height="1" fill="#4f8f8a"/>
<rect x="41" y="20" width="1" height="1" fill="#3b7672"/>
<rect x="42" y="20" width="2" height="1" fill="#26564f"/>
<rect x="47" y="20" width="1" height="1" fill="#c8b47c"/>
<rect x="3" y="21" width="4" height="1" fill="#a9cbc8"/>
<rect x="8" y="21" width="1" height="1" fill="#26564f"/>
<rect x="9" y="21" width="5" height="1" fill="#4f8f8a"/>
<rect x="14" y="21" width="1" height="1" fill="#3b7672"/>
<rect x="15" y="21" width="1" height="1" fill="#26564f"/>
<rect x="19" y="21" width="1" height="1" fill="#26564f"/>
<rect x="20" y="21" width="11" height="1" fill="#4f8f8a"/>
<rect x="31" y="21" width="1" height="1" fill="#3b7672"/>
<rect x="32" y="21" width="1" height="1" fill="#26564f"/>
<rect x="34" y="21" width="6" height="1" fill="#4f8f8a"/>
<rect x="40" y="21" width="2" height="1" fill="#3b7672"/>
<rect x="42" y="21" width="1" height="1" fill="#26564f"/>
<rect x="45" y="21" width="1" height="1" fill="#c8b47c"/>
<rect x="46" y="21" width="1" height="1" fill="#fbefdc"/>
<rect x="47" y="21" width="3" height="1" fill="#c8b47c"/>
<rect x="2" y="22" width="1" height="1" fill="#4f8f8a"/>
<rect x="3" y="22" width="1" height="1" fill="#3b7672"/>
<rect x="4" y="22" width="1" height="1" fill="#26564f"/>
<rect x="9" y="22" width="1" height="1" fill="#3b7672"/>
<rect x="10" y="22" width="6" height="1" fill="#4f8f8a"/>
<rect x="16" y="22" width="1" height="1" fill="#3b7672"/>
<rect x="17" y="22" width="1" height="1" fill="#26564f"/>
<rect x="20" y="22" width="19" height="1" fill="#4f8f8a"/>
<rect x="39" y="22" width="2" height="1" fill="#3b7672"/>
<rect x="41" y="22" width="2" height="1" fill="#26564f"/>
<rect x="45" y="22" width="5" height="1" fill="#c8b47c"/>
<rect x="2" y="23" width="1" height="1" fill="#4f8f8a"/>
<rect x="3" y="23" width="1" height="1" fill="#3b7672"/>
<rect x="4" y="23" width="1" height="1" fill="#26564f"/>
<rect x="9" y="23" width="1" height="1" fill="#26564f"/>
<rect x="10" y="23" width="1" height="1" fill="#3b7672"/>
<rect x="11" y="23" width="27" height="1" fill="#4f8f8a"/>
<rect x="38" y="23" width="2" height="1" fill="#3b7672"/>
<rect x="40" y="23" width="2" height="1" fill="#26564f"/>
<rect x="45" y="23" width="5" height="1" fill="#c8b47c"/>
<rect x="2" y="24" width="1" height="1" fill="#4f8f8a"/>
<rect x="3" y="24" width="1" height="1" fill="#3b7672"/>
<rect x="4" y="24" width="1" height="1" fill="#26564f"/>
<rect x="10" y="24" width="1" height="1" fill="#26564f"/>
<rect x="11" y="24" width="1" height="1" fill="#3b7672"/>
<rect x="12" y="24" width="25" height="1" fill="#4f8f8a"/>
<rect x="37" y="24" width="2" height="1" fill="#3b7672"/>
<rect x="39" y="24" width="2" height="1" fill="#26564f"/>
<rect x="45" y="24" width="5" height="1" fill="#c8b47c"/>
<rect x="2" y="25" width="1" height="1" fill="#4f8f8a"/>
<rect x="3" y="25" width="1" height="1" fill="#3b7672"/>
<rect x="4" y="25" width="1" height="1" fill="#26564f"/>
<rect x="11" y="25" width="1" height="1" fill="#26564f"/>
<rect x="12" y="25" width="2" height="1" fill="#3b7672"/>
<rect x="14" y="25" width="21" height="1" fill="#4f8f8a"/>
<rect x="35" y="25" width="3" height="1" fill="#3b7672"/>
<rect x="38" y="25" width="2" height="1" fill="#26564f"/>
<rect x="46" y="25" width="1" height="1" fill="#4f8f8a"/>
<rect x="47" y="25" width="1" height="1" fill="#c8b47c"/>
<rect x="48" y="25" width="1" height="1" fill="#26564f"/>
<rect x="2" y="26" width="2" height="1" fill="#4f8f8a"/>
<rect x="4" y="26" width="1" height="1" fill="#3b7672"/>
<rect x="5" y="26" width="1" height="1" fill="#26564f"/>
<rect x="12" y="26" width="2" height="1" fill="#26564f"/>
<rect x="14" y="26" width="1" height="1" fill="#3b7672"/>
<rect x="15" y="26" width="19" height="1" fill="#4f8f8a"/>
<rect x="34" y="26" width="2" height="1" fill="#3b7672"/>
<rect x="36" y="26" width="3" height="1" fill="#26564f"/>
<rect x="46" y="26" width="1" height="1" fill="#4f8f8a"/>
<rect x="47" y="26" width="1" height="1" fill="#3b7672"/>
<rect x="48" y="26" width="1" height="1" fill="#26564f"/>
<rect x="2" y="27" width="3" height="1" fill="#4f8f8a"/>
<rect x="5" y="27" width="1" height="1" fill="#3b7672"/>
<rect x="6" y="27" width="1" height="1" fill="#26564f"/>
<rect x="14" y="27" width="1" height="1" fill="#26564f"/>
<rect x="15" y="27" width="2" height="1" fill="#3b7672"/>
<rect x="17" y="27" width="3" height="1" fill="#4f8f8a"/>
<rect x="20" y="27" width="3" height="1" fill="#7fb5b0"/>
<rect x="23" y="27" width="6" height="1" fill="#4f8f8a"/>
<rect x="29" y="27" width="3" height="1" fill="#7fb5b0"/>
<rect x="32" y="27" width="1" height="1" fill="#4f8f8a"/>
<rect x="33" y="27" width="2" height="1" fill="#3b7672"/>
<rect x="35" y="27" width="2" height="1" fill="#26564f"/>
<rect x="46" y="27" width="1" height="1" fill="#4f8f8a"/>
<rect x="47" y="27" width="1" height="1" fill="#3b7672"/>
<rect x="48" y="27" width="1" height="1" fill="#26564f"/>
<rect x="2" y="28" width="1" height="1" fill="#3b7672"/>
<rect x="3" y="28" width="2" height="1" fill="#4f8f8a"/>
<rect x="5" y="28" width="1" height="1" fill="#3b7672"/>
<rect x="6" y="28" width="1" height="1" fill="#26564f"/>
<rect x="15" y="28" width="2" height="1" fill="#26564f"/>
<rect x="17" y="28" width="2" height="1" fill="#4f8f8a"/>
<rect x="19" y="28" width="5" height="1" fill="#7fb5b0"/>
<rect x="24" y="28" width="4" height="1" fill="#4f8f8a"/>
<rect x="28" y="28" width="5" height="1" fill="#7fb5b0"/>
<rect x="33" y="28" width="1" height="1" fill="#3b7672"/>
<rect x="34" y="28" width="2" height="1" fill="#26564f"/>
<rect x="44" y="28" width="3" height="1" fill="#4f8f8a"/>
<rect x="47" y="28" width="1" height="1" fill="#3b7672"/>
<rect x="48" y="28" width="1" height="1" fill="#26564f"/>
<rect x="2" y="29" width="1" height="1" fill="#26564f"/>
<rect x="3" y="29" width="3" height="1" fill="#4f8f8a"/>
<rect x="6" y="29" width="1" height="1" fill="#3b7672"/>
<rect x="7" y="29" width="1" height="1" fill="#26564f"/>
<rect x="17" y="29" width="2" height="1" fill="#4f8f8a"/>
<rect x="19" y="29" width="1" height="1" fill="#7fb5b0"/>
<rect x="20" y="29" width="3" height="1" fill="#0d3b38"/>
<rect x="23" y="29" width="1" height="1" fill="#7fb5b0"/>
<rect x="24" y="29" width="4" height="1" fill="#4f8f8a"/>
<rect x="28" y="29" width="1" height="1" fill="#7fb5b0"/>
<rect x="29" y="29" width="3" height="1" fill="#0d3b38"/>
<rect x="32" y="29" width="1" height="1" fill="#7fb5b0"/>
<rect x="33" y="29" width="1" height="1" fill="#3b7672"/>
<rect x="34" y="29" width="1" height="1" fill="#26564f"/>
<rect x="43" y="29" width="4" height="1" fill="#4f8f8a"/>
<rect x="47" y="29" width="1" height="1" fill="#3b7672"/>
<rect x="48" y="29" width="1" height="1" fill="#26564f"/>
<rect x="3" y="30" width="1" height="1" fill="#3b7672"/>
<rect x="4" y="30" width="2" height="1" fill="#4f8f8a"/>
<rect x="6" y="30" width="1" height="1" fill="#3b7672"/>
<rect x="7" y="30" width="1" height="1" fill="#26564f"/>
<rect x="15" y="30" width="5" height="1" fill="#4f8f8a"/>
<rect x="20" y="30" width="3" height="1" fill="#3b7672"/>
<rect x="23" y="30" width="6" height="1" fill="#4f8f8a"/>
<rect x="29" y="30" width="3" height="1" fill="#3b7672"/>
<rect x="32" y="30" width="14" height="1" fill="#4f8f8a"/>
<rect x="46" y="30" width="2" height="1" fill="#3b7672"/>
<rect x="48" y="30" width="1" height="1" fill="#26564f"/>
<rect x="3" y="31" width="1" height="1" fill="#26564f"/>
<rect x="4" y="31" width="4" height="1" fill="#4f8f8a"/>
<rect x="8" y="31" width="1" height="1" fill="#3b7672"/>
<rect x="9" y="31" width="1" height="1" fill="#26564f"/>
<rect x="13" y="31" width="31" height="1" fill="#4f8f8a"/>
<rect x="44" y="31" width="3" height="1" fill="#3b7672"/>
<rect x="47" y="31" width="2" height="1" fill="#26564f"/>
<rect x="4" y="32" width="1" height="1" fill="#3b7672"/>
<rect x="5" y="32" width="36" height="1" fill="#4f8f8a"/>
<rect x="41" y="32" width="4" height="1" fill="#3b7672"/>
<rect x="45" y="32" width="3" height="1" fill="#26564f"/>
<rect x="4" y="33" width="1" height="1" fill="#26564f"/>
<rect x="5" y="33" width="1" height="1" fill="#3b7672"/>
<rect x="6" y="33" width="27" height="1" fill="#4f8f8a"/>
<rect x="33" y="33" width="9" height="1" fill="#3b7672"/>
<rect x="42" y="33" width="4" height="1" fill="#26564f"/>
<rect x="5" y="34" width="1" height="1" fill="#26564f"/>
<rect x="6" y="34" width="2" height="1" fill="#3b7672"/>
<rect x="8" y="34" width="25" height="1" fill="#4f8f8a"/>
<rect x="33" y="34" width="1" height="1" fill="#3b7672"/>
<rect x="34" y="34" width="9" height="1" fill="#26564f"/>
<rect x="6" y="35" width="2" height="1" fill="#26564f"/>
<rect x="8" y="35" width="1" height="1" fill="#3b7672"/>
<rect x="9" y="35" width="24" height="1" fill="#4f8f8a"/>
<rect x="33" y="35" width="1" height="1" fill="#3b7672"/>
<rect x="34" y="35" width="1" height="1" fill="#26564f"/>
<rect x="8" y="36" width="1" height="1" fill="#26564f"/>
<rect x="9" y="36" width="9" height="1" fill="#4f8f8a"/>
<rect x="18" y="36" width="3" height="1" fill="#3b7672"/>
<rect x="21" y="36" width="14" height="1" fill="#4f8f8a"/>
<rect x="35" y="36" width="1" height="1" fill="#3b7672"/>
<rect x="36" y="36" width="1" height="1" fill="#26564f"/>
<rect x="9" y="37" width="7" height="1" fill="#4f8f8a"/>
<rect x="16" y="37" width="3" height="1" fill="#3b7672"/>
<rect x="19" y="37" width="2" height="1" fill="#26564f"/>
<rect x="21" y="37" width="14" height="1" fill="#4f8f8a"/>
<rect x="35" y="37" width="1" height="1" fill="#3b7672"/>
<rect x="36" y="37" width="1" height="1" fill="#26564f"/>
<rect x="8" y="38" width="5" height="1" fill="#4f8f8a"/>
<rect x="13" y="38" width="4" height="1" fill="#3b7672"/>
<rect x="17" y="38" width="3" height="1" fill="#26564f"/>
<rect x="21" y="38" width="15" height="1" fill="#4f8f8a"/>
<rect x="36" y="38" width="1" height="1" fill="#3b7672"/>
<rect x="37" y="38" width="1" height="1" fill="#26564f"/>
<rect x="7" y="39" width="4" height="1" fill="#4f8f8a"/>
<rect x="11" y="39" width="3" height="1" fill="#3b7672"/>
<rect x="14" y="39" width="4" height="1" fill="#26564f"/>
<rect x="20" y="39" width="17" height="1" fill="#4f8f8a"/>
<rect x="37" y="39" width="1" height="1" fill="#3b7672"/>
<rect x="38" y="39" width="1" height="1" fill="#26564f"/>
<rect x="6" y="40" width="3" height="1" fill="#4f8f8a"/>
<rect x="9" y="40" width="3" height="1" fill="#3b7672"/>
<rect x="12" y="40" width="3" height="1" fill="#26564f"/>
<rect x="20" y="40" width="18" height="1" fill="#4f8f8a"/>
<rect x="38" y="40" width="1" height="1" fill="#3b7672"/>
<rect x="39" y="40" width="1" height="1" fill="#26564f"/>
<rect x="6" y="41" width="2" height="1" fill="#4f8f8a"/>
<rect x="8" y="41" width="2" height="1" fill="#3b7672"/>
<rect x="10" y="41" width="3" height="1" fill="#26564f"/>
<rect x="19" y="41" width="4" height="1" fill="#4f8f8a"/>
<rect x="23" y="41" width="5" height="1" fill="#3b7672"/>
<rect x="28" y="41" width="2" height="1" fill="#4f8f8a"/>
<rect x="30" y="41" width="4" height="1" fill="#3b7672"/>
<rect x="34" y="41" width="4" height="1" fill="#4f8f8a"/>
<rect x="38" y="41" width="1" height="1" fill="#3b7672"/>
<rect x="39" y="41" width="1" height="1" fill="#26564f"/>
<rect x="5" y="42" width="1" height="1" fill="#4f8f8a"/>
<rect x="6" y="42" width="3" height="1" fill="#3b7672"/>
<rect x="9" y="42" width="2" height="1" fill="#26564f"/>
<rect x="19" y="42" width="3" height="1" fill="#4f8f8a"/>
<rect x="22" y="42" width="2" height="1" fill="#3b7672"/>
<rect x="24" y="42" width="4" height="1" fill="#26564f"/>
<rect x="28" y="42" width="2" height="1" fill="#4f8f8a"/>
<rect x="30" y="42" width="1" height="1" fill="#3b7672"/>
<rect x="31" y="42" width="3" height="1" fill="#26564f"/>
<rect x="34" y="42" width="2" height="1" fill="#3b7672"/>
<rect x="36" y="42" width="3" height="1" fill="#4f8f8a"/>
<rect x="39" y="42" width="1" height="1" fill="#3b7672"/>
<rect x="40" y="42" width="1" height="1" fill="#26564f"/>
<rect x="4" y="43" width="1" height="1" fill="#4f8f8a"/>
<rect x="5" y="43" width="2" height="1" fill="#3b7672"/>
<rect x="7" y="43" width="3" height="1" fill="#26564f"/>
<rect x="17" y="43" width="4" height="1" fill="#4f8f8a"/>
<rect x="21" y="43" width="2" height="1" fill="#3b7672"/>
<rect x="23" y="43" width="2" height="1" fill="#26564f"/>
<rect x="28" y="43" width="2" height="1" fill="#4f8f8a"/>
<rect x="30" y="43" width="1" height="1" fill="#3b7672"/>
<rect x="31" y="43" width="1" height="1" fill="#26564f"/>
<rect x="34" y="43" width="2" height="1" fill="#26564f"/>
<rect x="36" y="43" width="1" height="1" fill="#3b7672"/>
<rect x="37" y="43" width="4" height="1" fill="#4f8f8a"/>
<rect x="41" y="43" width="1" height="1" fill="#3b7672"/>
<rect x="42" y="43" width="1" height="1" fill="#26564f"/>
<rect x="4" y="44" width="1" height="1" fill="#4f8f8a"/>
<rect x="5" y="44" width="1" height="1" fill="#3b7672"/>
<rect x="6" y="44" width="2" height="1" fill="#26564f"/>
<rect x="16" y="44" width="4" height="1" fill="#4f8f8a"/>
<rect x="20" y="44" width="2" height="1" fill="#3b7672"/>
<rect x="22" y="44" width="2" height="1" fill="#26564f"/>
<rect x="28" y="44" width="2" height="1" fill="#4f8f8a"/>
<rect x="30" y="44" width="1" height="1" fill="#3b7672"/>
<rect x="31" y="44" width="1" height="1" fill="#26564f"/>
<rect x="36" y="44" width="1" height="1" fill="#26564f"/>
<rect x="37" y="44" width="1" height="1" fill="#3b7672"/>
<rect x="38" y="44" width="5" height="1" fill="#4f8f8a"/>
<rect x="43" y="44" width="1" height="1" fill="#3b7672"/>
<rect x="44" y="44" width="1" height="1" fill="#26564f"/>
<rect x="3" y="45" width="4" height="1" fill="#f3c6b6"/>
<rect x="10" y="45" width="4" height="1" fill="#b07a8a"/>
<rect x="14" y="45" width="4" height="1" fill="#4f8f8a"/>
<rect x="18" y="45" width="3" height="1" fill="#3b7672"/>
<rect x="21" y="45" width="2" height="1" fill="#26564f"/>
<rect x="28" y="45" width="3" height="1" fill="#4f8f8a"/>
<rect x="31" y="45" width="1" height="1" fill="#3b7672"/>
<rect x="32" y="45" width="1" height="1" fill="#26564f"/>
<rect x="34" y="45" width="3" height="1" fill="#fbefdc"/>
<rect x="37" y="45" width="1" height="1" fill="#26564f"/>
<rect x="38" y="45" width="2" height="1" fill="#3b7672"/>
<rect x="40" y="45" width="5" height="1" fill="#4f8f8a"/>
<rect x="45" y="45" width="1" height="1" fill="#3b7672"/>
<rect x="46" y="45" width="3" height="1" fill="#8fa35a"/>
<rect x="2" y="46" width="1" height="1" fill="#f3c6b6"/>
<rect x="3" y="46" width="1" height="1" fill="#fbefdc"/>
<rect x="4" y="46" width="3" height="1" fill="#f3c6b6"/>
<rect x="10" y="46" width="1" height="1" fill="#fbefdc"/>
<rect x="11" y="46" width="3" height="1" fill="#b07a8a"/>
<rect x="14" y="46" width="1" height="1" fill="#4f8f8a"/>
<rect x="15" y="46" width="4" height="1" fill="#3b7672"/>
<rect x="19" y="46" width="3" height="1" fill="#26564f"/>
<rect x="28" y="46" width="2" height="1" fill="#3b7672"/>
<rect x="30" y="46" width="3" height="1" fill="#4f8f8a"/>
<rect x="33" y="46" width="1" height="1" fill="#fbefdc"/>
<rect x="34" y="46" width="1" height="1" fill="#c8b47c"/>
<rect x="35" y="46" width="3" height="1" fill="#fbefdc"/>
<rect x="38" y="46" width="2" height="1" fill="#26564f"/>
<rect x="40" y="46" width="4" height="1" fill="#3b7672"/>
<rect x="44" y="46" width="1" height="1" fill="#4f8f8a"/>
<rect x="45" y="46" width="1" height="1" fill="#8fa35a"/>
<rect x="46" y="46" width="1" height="1" fill="#fbefdc"/>
<rect x="47" y="46" width="3" height="1" fill="#8fa35a"/>
<rect x="2" y="47" width="5" height="1" fill="#f3c6b6"/>
<rect x="9" y="47" width="6" height="1" fill="#b07a8a"/>
<rect x="15" y="47" width="1" height="1" fill="#3b7672"/>
<rect x="16" y="47" width="4" height="1" fill="#26564f"/>
<rect x="28" y="47" width="2" height="1" fill="#26564f"/>
<rect x="30" y="47" width="3" height="1" fill="#3b7672"/>
<rect x="33" y="47" width="5" height="1" fill="#fbefdc"/>
<rect x="40" y="47" width="4" height="1" fill="#26564f"/>
<rect x="44" y="47" width="1" height="1" fill="#3b7672"/>
<rect x="45" y="47" width="5" height="1" fill="#8fa35a"/>
<rect x="2" y="48" width="5" height="1" fill="#f3c6b6"/>
<rect x="10" y="48" width="4" height="1" fill="#b07a8a"/>
<rect x="14" y="48" width="3" height="1" fill="#26564f"/>
<rect x="30" y="48" width="3" height="1" fill="#26564f"/>
<rect x="33" y="48" width="5" height="1" fill="#fbefdc"/>
<rect x="44" y="48" width="1" height="1" fill="#26564f"/>
<rect x="45" y="48" width="5" height="1" fill="#8fa35a"/>
<rect x="3" y="49" width="3" height="1" fill="#f3c6b6"/>
<rect x="10" y="49" width="4" height="1" fill="#b07a8a"/>
<rect x="34" y="49" width="3" height="1" fill="#fbefdc"/>
<rect x="46" y="49" width="3" height="1" fill="#8fa35a"/>
</svg>
