<svg xmlns="http://www.w3.org/2000/svg" viewBox="0 0 64 64" width="512" height="512" shape-rendering="crispEdges">
<!-- OmniQueue octopus, generated by tools/make_logo.py -->
<rect width="64" height="64" rx="10.7" fill="#073a34"/>
<rect x="30" y="5" width="2" height="1" fill="#7fb5b0"/>
<rect x="32" y="5" width="1" height="1" fill="#3b7672"/>
<rect x="33" y="5" width="1" height="1" fill="#26564f"/>
<rect x="27" y="6" width="5" height="1" fill="#7fb5b0"/>
<rect x="32" y="6" width="3" height="1" fill="#4f8f8a"/>
<rect x="35" y="6" width="1" height="1" fill="#3b7672"/>
<rect x="36" y="6" width="1" height="1" fill="#26564f"/>
<rect x="25" y="7" width="6" height="1" fill="#7fb5b0"/>
<rect x="31" y="7" width="6" height="1" fill="#4f8f8a"/>
<rect x="37" y="7" width="1" height="1" fill="#3b7672"/>
<rect x="38" y="7" width="1" height="1" fill="#26564f"/>
<rect x="24" y="8" width="4" height="1" fill="#7fb5b0"/>
<rect x="28" y="8" width="10" height="1" fill="#4f8f8a"/>
<rect x="38" y="8" width="1" height="1" fill="#3b7672"/>
<rect x="39" y="8" width="1" height="1" fill="#26564f"/>
<rect x="23" y="9" width="3" height="1" fill="#7fb5b0"/>
<rect x="26" y="9" width="13" height="1" fill="#4f8f8a"/>
<rect x="39" y="9" width="1" height="1" fill="#3b7672"/>
<rect x="40" y="9" width="1" height="1" fill="#26564f"/>
<rect x="50" y="9" width="1" height="1" fill="#fbefdc"/>
<rect x="51" y="9" width="3" height="1" fill="#b39a4b"/>
<rect x="8" y="10" width="2" height="1" fill="#e2856c"/>
<rect x="22" y="10" width="3" height="1" fill="#7fb5b0"/>
<rect x="25" y="10" width="15" height="1" fill="#4f8f8a"/>
<rect x="40" y="10" width="1" height="1" fill="#3b7672"/>
<rect x="41" y="10" width="1" height="1" fill="#26564f"/>
<rect x="49" y="10" width="6" height="1" fill="#b39a4b"/>
<rect x="7" y="11" width="1" height="1" fill="#fbefdc"/>
<rect x="8" y="11" width="3" height="1" fill="#e2856c"/>
<rect x="21" y="11" width="3" height="1" fill="#7fb5b0"/>
<rect x="24" y="11" width="17" height="1" fill="#4f8f8a"/>
<rect x="41" y="11" width="1" height="1" fill="#3b7672"/>
<rect x="42" y="11" width="1" height="1" fill="#26564f"/>
<rect x="49" y="11" width="6" height="1" fill="#b39a4b"/>
<rect x="6" y="12" width="6" height="1" fill="#e2856c"/>
<rect x="21" y="12" width="2" height="1" fill="#7fb5b0"/>
<rect x="23" y="12" width="18" height="1" fill="#4f8f8a"/>
<rect x="41" y="12" width="1" height="1" fill="#3b7672"/>
<rect x="42" y="12" width="1" height="1" fill="#26564f"/>
<rect x="49" y="12" width="5" height="1" fill="#b39a4b"/>
<rect x="54" y="12" width="1" height="1" fill="#806e36"/>
<rect x="4" y="13" width="1" height="1" fill="#3b7672"/>
<rect x="5" y="13" width="1" height="1" fill="#26564f"/>
<rect x="6" y="13" width="5" height="1" fill="#e2856c"/>
<rect x="11" y="13" width="1" height="1" fill="#a25f4d"/>
<rect x="20" y="13" width="3" height="1" fill="#7fb5b0"/>
<rect x="23" y="13" width="19" height="1" fill="#4f8f8a"/>
<rect x="42" y="13" width="1" height="1" fill="#3b7672"/>
<rect x="43" y="13" width="1" height="1" fill="#26564f"/>
<rect x="50" y="13" width="3" height="1" fill="#b39a4b"/>
<rect x="53" y="13" width="1" height="1" fill="#806e36"/>
<rect x="4" y="14" width="1" height="1" fill="#3b7672"/>
<rect x="5" y="14" width="1" height="1" fill="#26564f"/>
<rect x="7" y="14" width="3" height="1" fill="#e2856c"/>
<rect x="10" y="14" width="1" height="1" fill="#a25f4d"/>
<rect x="20" y="14" width="2" height="1" fill="#7fb5b0"/>
<rect x="22" y="14" width="20" height="1" fill="#4f8f8a"/>
<rect x="42" y="14" width="1" height="1" fill="#3b7672"/>
<rect x="43" y="14" width="1" height="1" fill="#26564f"/>
<rect x="50" y="14" width="1" height="1" fill="#3b7672"/>
<rect x="51" y="14" width="1" height="1" fill="#26564f"/>
<rect x="4" y="15" width="1" height="1" fill="#26564f"/>
<rect x="5" y="15" width="1" height="1" fill="#3b7672"/>
<rect x="6" y="15" width="1" height="1" fill="#26564f"/>
<rect x="8" y="15" width="1" height="1" fill="#e2856c"/>
<rect x="9" y="15" width="1" height="1" fill="#a25f4d"/>
<rect x="20" y="15" width="2" height="1" fill="#7fb5b0"/>
<rect x="22" y="15" width="20" height="1" fill="#4f8f8a"/>
<rect x="42" y="15" width="1" height="1" fill="#3b7672"/>
<rect x="43" y="15" width="1" height="1" fill="#26564f"/>
<rect x="50" y="15" width="1" height="1" fill="#3b7672"/>
<rect x="51" y="15" width="1" height="1" fill="#26564f"/>
<rect x="5" y="16" width="1" height="1" fill="#26564f"/>
<rect x="6" y="16" width="2" height="1" fill="#3b7672"/>
<rect x="8" y="16" width="2" height="1" fill="#7fb5b0"/>
<rect x="10" y="16" width="1" height="1" fill="#3b7672"/>
<rect x="11" y="16" width="1" height="1" fill="#26564f"/>
<rect x="19" y="16" width="3" height="1" fill="#7fb5b0"/>
<rect x="22" y="16" width="21" height="1" fill="#4f8f8a"/>
<rect x="43" y="16" width="1" height="1" fill="#3b7672"/>
<rect x="44" y="16" width="1" height="1" fill="#26564f"/>
<rect x="50" y="16" width="1" height="1" fill="#3b7672"/>
<rect x="51" y="16" width="1" height="1" fill="#26564f"/>
<rect x="6" y="17" width="2" height="1" fill="#26564f"/>
<rect x="8" y="17" width="2" height="1" fill="#3b7672"/>
<rect x="10" y="17" width="1" height="1" fill="#7fb5b0"/>
<rect x="11" y="17" width="1" height="1" fill="#3b7672"/>
<rect x="12" y="17" width="1" height="1" fill="#26564f"/>
<rect x="19" y="17" width="2" height="1" fill="#7fb5b0"/>
<rect x="21" y="17" width="22" height="1" fill="#4f8f8a"/>
<rect x="43" y="17" width="1" height="1" fill="#3b7672"/>
<rect x="44" y="17" width="1" height="1" fill="#26564f"/>
<rect x="49" y="17" width="1" height="1" fill="#3b7672"/>
<rect x="50" y="17" width="2" height="1" fill="#26564f"/>
<rect x="8" y="18" width="2" height="1" fill="#26564f"/>
<rect x="10" y="18" width="1" height="1" fill="#4f8f8a"/>
<rect x="11" y="18" width="1" height="1" fill="#3b7672"/>
<rect x="12" y="18" width="1" height="1" fill="#26564f"/>
<rect x="19" y="18" width="1" height="1" fill="#3b7672"/>
<rect x="20" y="18" width="1" height="1" fill="#7fb5b0"/>
<rect x="21" y="18" width="21" height="1" fill="#4f8f8a"/>
<rect x="42" y="18" width="2" height="1" fill="#3b7672"/>
<rect x="44" y="18" width="1" height="1" fill="#26564f"/>
<rect x="49" y="18" width="1" height="1" fill="#3b7672"/>
<rect x="50" y="18" width="1" height="1" fill="#26564f"/>
<rect x="10" y="19" width="1" height="1" fill="#7fb5b0"/>
<rect x="11" y="19" width="1" height="1" fill="#3b7672"/>
<rect x="12" y="19" width="1" height="1" fill="#26564f"/>
<rect x="19" y="19" width="1" height="1" fill="#26564f"/>
<rect x="20" y="19" width="1" height="1" fill="#7fb5b0"/>
<rect x="21" y="19" width="21" height="1" fill="#4f8f8a"/>
<rect x="42" y="19" width="1" height="1" fill="#3b7672"/>
<rect x="43" y="19" width="2" height="1" fill="#26564f"/>
<rect x="49" y="19" width="1" height="1" fill="#3b7672"/>
<rect x="50" y="19" width="1" height="1" fill="#26564f"/>
<rect x="10" y="20" width="2" height="1" fill="#3b7672"/>
<rect x="12" y="20" width="1" height="1" fill="#26564f"/>
<rect x="20" y="20" width="22" height="1" fill="#4f8f8a"/>
<rect x="42" y="20" width="1" height="1" fill="#3b7672"/>
<rect x="43" y="20" width="1" height="1" fill="#26564f"/>
<rect x="48" y="20" width="2" height="1" fill="#3b7672"/>
<rect x="50" y="20" width="1" height="1" fill="#26564f"/>
<rect x="10" y="21" width="1" height="1" fill="#26564f"/>
<rect x="11" y="21" width="1" height="1" fill="#4f8f8a"/>
<rect x="12" y="21" width="1" height="1" fill="#3b7672"/>
<rect x="13" y="21" width="1" height="1" fill="#26564f"/>
<rect x="20" y="21" width="1" height="1" fill="#3b7672"/>
<rect x="21" y="21" width="20" height="1" fill="#4f8f8a"/>
<rect x="41" y="21" width="2" height="1" fill="#3b7672"/>
<rect x="43" y="21" width="1" height="1" fill="#26564f"/>
<rect x="48" y="21" width="1" height="1" fill="#3b7672"/>
<rect x="49" y="21" width="2" height="1" fill="#26564f"/>
<rect x="11" y="22" width="1" height="1" fill="#4f8f8a"/>
<rect x="12" y="22" width="1" height="1" fill="#3b7672"/>
<rect x="13" y="22" width="1" height="1" fill="#26564f"/>
<rect x="20" y="22" width="1" height="1" fill="#26564f"/>
<rect x="21" y="22" width="20" height="1" fill="#4f8f8a"/>
<rect x="41" y="22" width="1" height="1" fill="#3b7672"/>
<rect x="42" y="22" width="2" height="1" fill="#26564f"/>
<rect x="47" y="22" width="1" height="1" fill="#4f8f8a"/>
<rect x="48" y="22" width="1" height="1" fill="#3b7672"/>
<rect x="49" y="22" width="1" height="1" fill="#26564f"/>
<rect x="56" y="22" width="1" height="1" fill="#3b7672"/>
<rect x="57" y="22" width="1" height="1" fill="#26564f"/>
<rect x="11" y="23" width="1" height="1" fill="#3b7672"/>
<rect x="12" y="23" width="1" height="1" fill="#4f8f8a"/>
<rect x="13" y="23" width="1" height="1" fill="#3b7672"/>
<rect x="14" y="23" width="1" height="1" fill="#26564f"/>
<rect x="21" y="23" width="1" height="1" fill="#3b7672"/>
<rect x="22" y="23" width="18" height="1" fill="#4f8f8a"/>
<rect x="40" y="23" width="2" height="1" fill="#3b7672"/>
<rect x="42" y="23" width="1" height="1" fill="#26564f"/>
<rect x="46" y="23" width="1" height="1" fill="#4f8f8a"/>
<rect x="47" y="23" width="2" height="1" fill="#3b7672"/>
<rect x="49" y="23" width="1" height="1" fill="#26564f"/>
<rect x="56" y="23" width="1" height="1" fill="#26564f"/>
<rect x="57" y="23" width="1" height="1" fill="#3b7672"/>
<rect x="58" y="23" width="1" height="1" fill="#26564f"/>
<rect x="11" y="24" width="1" height="1" fill="#26564f"/>
<rect x="12" y="24" width="1" height="1" fill="#4f8f8a"/>
<rect x="13" y="24" width="1" height="1" fill="#3b7672"/>
<rect x="14" y="24" width="1" height="1" fill="#26564f"/>
<rect x="21" y="24" width="1" height="1" fill="#26564f"/>
<rect x="22" y="24" width="1" height="1" fill="#3b7672"/>
<rect x="23" y="24" width="16" height="1" fill="#4f8f8a"/>
<rect x="39" y="24" width="2" height="1" fill="#3b7672"/>
<rect x="41" y="24" width="2" height="1" fill="#26564f"/>
<rect x="46" y="24" width="1" height="1" fill="#4f8f8a"/>
<rect x="47" y="24" width="1" height="1" fill="#3b7672"/>
<rect x="48" y="24" width="2" height="1" fill="#26564f"/>
<rect x="54" y="24" width="2" height="1" fill="#c8b47c"/>
<rect x="57" y="24" width="1" height="1" fill="#26564f"/>
<rect x="58" y="24" width="1" height="1" fill="#3b7672"/>
<rect x="59" y="24" width="1" height="1" fill="#26564f"/>
<rect x="12" y="25" width="1" height="1" fill="#3b7672"/>
<rect x="13" y="25" width="1" height="1" fill="#4f8f8a"/>
<rect x="14" y="25" width="1" height="1" fill="#3b7672"/>
<rect x="15" y="25" width="1" height="1" fill="#26564f"/>
<rect x="22" y="25" width="1" height="1" fill="#26564f"/>
<rect x="23" y="25" width="16" height="1" fill="#4f8f8a"/>
<rect x="39" y="25" width="1" height="1" fill="#3b7672"/>
<rect x="40" y="25" width="2" height="1" fill="#26564f"/>
<rect x="45" y="25" width="1" height="1" fill="#4f8f8a"/>
<rect x="46" y="25" width="2" height="1" fill="#3b7672"/>
<rect x="48" y="25" width="1" height="1" fill="#26564f"/>
<rect x="53" y="25" width="1" height="1" fill="#fbefdc"/>
<rect x="54" y="25" width="3" height="1" fill="#c8b47c"/>
<rect x="58" y="25" width="1" height="1" fill="#3b7672"/>
<rect x="59" y="25" width="1" height="1" fill="#26564f"/>
<rect x="12" y="26" width="1" height="1" fill="#26564f"/>
<rect x="13" y="26" width="2" height="1" fill="#4f8f8a"/>
<rect x="15" y="26" width="1" height="1" fill="#3b7672"/>
<rect x="16" y="26" width="1" height="1" fill="#26564f"/>
<rect x="23" y="26" width="16" height="1" fill="#4f8f8a"/>
<rect x="39" y="26" width="1" height="1" fill="#3b7672"/>
<rect x="40" y="26" width="1" height="1" fill="#26564f"/>
<rect x="44" y="26" width="2" height="1" fill="#4f8f8a"/>
<rect x="46" y="26" width="1" height="1" fill="#3b7672"/>
<rect x="47" y="26" width="2" height="1" fill="#26564f"/>
<rect x="52" y="26" width="6" height="1" fill="#c8b47c"/>
<rect x="58" y="26" width="1" height="1" fill="#4f8f8a"/>
<rect x="59" y="26" width="1" height="1" fill="#3b7672"/>
<rect x="60" y="26" width="1" height="1" fill="#26564f"/>
<rect x="4" y="27" width="3" height="1" fill="#a9cbc8"/>
<rect x="13" y="27" width="1" height="1" fill="#3b7672"/>
<rect x="14" y="27" width="2" height="1" fill="#4f8f8a"/>
<rect x="16" y="27" width="1" height="1" fill="#3b7672"/>
<rect x="17" y="27" width="1" height="1" fill="#26564f"/>
<rect x="22" y="27" width="1" height="1" fill="#26564f"/>
<rect x="23" y="27" width="1" height="1" fill="#3b7672"/>
<rect x="24" y="27" width="14" height="1" fill="#4f8f8a"/>
<rect x="38" y="27" width="2" height="1" fill="#3b7672"/>
<rect x="40" y="27" width="2" height="1" fill="#26564f"/>
<rect x="43" y="27" width="2" height="1" fill="#4f8f8a"/>
<rect x="45" y="27" width="2" height="1" fill="#3b7672"/>
<rect x="47" y="27" width="1" height="1" fill="#26564f"/>
<rect x="52" y="27" width="5" height="1" fill="#c8b47c"/>
<rect x="57" y="27" width="1" height="1" fill="#908159"/>
<rect x="58" y="27" width="2" height="1" fill="#3b7672"/>
<rect x="60" y="27" width="1" height="1" fill="#26564f"/>
<rect x="3" y="28" width="1" height="1" fill="#fbefdc"/>
<rect x="4" y="28" width="4" height="1" fill="#a9cbc8"/>
<rect x="13" y="28" width="1" height="1" fill="#26564f"/>
<rect x="14" y="28" width="1" height="1" fill="#3b7672"/>
<rect x="15" y="28" width="2" height="1" fill="#4f8f8a"/>
<rect x="17" y="28" width="1" height="1" fill="#3b7672"/>
<rect x="18" y="28" width="1" height="1" fill="#26564f"/>
<rect x="23" y="28" width="1" height="1" fill="#26564f"/>
<rect x="24" y="28" width="14" height="1" fill="#4f8f8a"/>
<rect x="38" y="28" width="1" height="1" fill="#3b7672"/>
<rect x="39" y="28" width="2" height="1" fill="#26564f"/>
<rect x="42" y="28" width="2" height="1" fill="#4f8f8a"/>
<rect x="44" y="28" width="2" height="1" fill="#3b7672"/>
<rect x="46" y="28" width="2" height="1" fill="#26564f"/>
<rect x="53" y="28" width="3" height="1" fill="#c8b47c"/>
<rect x="56" y="28" width="1" height="1" fill="#908159"/>
<rect x="58" y="28" width="1" height="1" fill="#3b7672"/>
<rect x="59" y="28" width="2" height="1" fill="#26564f"/>
<rect x="3" y="29" width="5" height="1" fill="#a9cbc8"/>
<rect x="14" y="29" width="1" height="1" fill="#26564f"/>
<rect x="15" y="29" width="3" height="1" fill="#4f8f8a"/>
<rect x="18" y="29" width="1" height="1" fill="#3b7672"/>
<rect x="19" y="29" width="1" height="1" fill="#26564f"/>
<rect x="24" y="29" width="1" height="1" fill="#3b7672"/>
<rect x="25" y="29" width="13" height="1" fill="#4f8f8a"/>
<rect x="38" y="29" width="1" height="1" fill="#3b7672"/>
<rect x="39" y="29" width="1" height="1" fill="#26564f"/>
<rect x="41" y="29" width="3" height="1" fill="#4f8f8a"/>
<rect x="44" y="29" width="1" height="1" fill="#3b7672"/>
<rect x="45" y="29" width="2" height="1" fill="#26564f"/>
<rect x="54" y="29" width="1" height="1" fill="#c8b47c"/>
<rect x="55" y="29" width="1" height="1" fill="#908159"/>
<rect x="57" y="29" width="2" height="1" fill="#3b7672"/>
<rect x="59" y="29" width="1" height="1" fill="#26564f"/>
<rect x="3" y="30" width="5" height="1" fill="#a9cbc8"/>
<rect x="15" y="30" width="1" height="1" fill="#3b7672"/>
<rect x="16" y="30" width="3" height="1" fill="#4f8f8a"/>
<rect x="19" y="30" width="1" height="1" fill="#3b7672"/>
<rect x="20" y="30" width="1" height="1" fill="#26564f"/>
<rect x="24" y="30" width="1" height="1" fill="#26564f"/>
<rect x="25" y="30" width="18" height="1" fill="#4f8f8a"/>
<rect x="43" y="30" width="2" height="1" fill="#3b7672"/>
<rect x="45" y="30" width="1" height="1" fill="#26564f"/>
<rect x="56" y="30" width="2" height="1" fill="#3b7672"/>
<rect x="58" y="30" width="2" height="1" fill="#26564f"/>
<rect x="3" y="31" width="4" height="1" fill="#a9cbc8"/>
<rect x="7" y="31" width="1" height="1" fill="#799290"/>
<rect x="15" y="31" width="1" height="1" fill="#26564f"/>
<rect x="16" y="31" width="1" height="1" fill="#3b7672"/>
<rect x="17" y="31" width="3" height="1" fill="#4f8f8a"/>
<rect x="20" y="31" width="1" height="1" fill="#3b7672"/>
<rect x="21" y="31" width="1" height="1" fill="#26564f"/>
<rect x="25" y="31" width="17" height="1" fill="#4f8f8a"/>
<rect x="42" y="31" width="2" height="1" fill="#3b7672"/>
<rect x="44" y="31" width="2" height="1" fill="#26564f"/>
<rect x="55" y="31" width="1" height="1" fill="#4f8f8a"/>
<rect x="56" y="31" width="1" height="1" fill="#3b7672"/>
<rect x="57" y="31" width="2" height="1" fill="#26564f"/>
<rect x="4" y="32" width="2" height="1" fill="#a9cbc8"/>
<rect x="6" y="32" width="1" height="1" fill="#799290"/>
<rect x="16" y="32" width="1" height="1" fill="#26564f"/>
<rect x="17" y="32" width="1" height="1" fill="#3b7672"/>
<rect x="18" y="32" width="4" height="1" fill="#4f8f8a"/>
<rect x="22" y="32" width="1" height="1" fill="#3b7672"/>
<rect x="23" y="32" width="1" height="1" fill="#26564f"/>
<rect x="25" y="32" width="16" height="1" fill="#4f8f8a"/>
<rect x="41" y="32" width="2" height="1" fill="#3b7672"/>
<rect x="43" y="32" width="2" height="1" fill="#26564f"/>
<rect x="55" y="32" width="2" height="1" fill="#3b7672"/>
<rect x="57" y="32" width="1" height="1" fill="#26564f"/>
<rect x="5" y="33" width="1" height="1" fill="#3b7672"/>
<rect x="6" y="33" width="1" height="1" fill="#26564f"/>
<rect x="17" y="33" width="1" height="1" fill="#26564f"/>
<rect x="18" y="33" width="1" height="1" fill="#3b7672"/>
<rect x="19" y="33" width="6" height="1" fill="#4f8f8a"/>
<rect x="25" y="33" width="3" height="1" fill="#7fb5b0"/>
<rect x="28" y="33" width="8" height="1" fill="#4f8f8a"/>
<rect x="36" y="33" width="3" height="1" fill="#7fb5b0"/>
<rect x="39" y="33" width="2" height="1" fill="#4f8f8a"/>
<rect x="41" y="33" width="1" height="1" fill="#3b7672"/>
<rect x="42" y="33" width="2" height="1" fill="#26564f"/>
<rect x="54" y="33" width="1" height="1" fill="#4f8f8a"/>
<rect x="55" y="33" width="1" height="1" fill="#3b7672"/>
<rect x="56" y="33" width="2" height="1" fill="#26564f"/>
<rect x="5" y="34" width="1" height="1" fill="#26564f"/>
<rect x="6" y="34" width="1" height="1" fill="#3b7672"/>
<rect x="7" y="34" width="1" height="1" fill="#26564f"/>
<rect x="18" y="34" width="1" height="1" fill="#26564f"/>
<rect x="19" y="34" width="2" height="1" fill="#3b7672"/>
<rect x="21" y="34" width="3" height="1" fill="#4f8f8a"/>
<rect x="24" y="34" width="5" height="1" fill="#7fb5b0"/>
<rect x="29" y="34" width="6" height="1" fill="#4f8f8a"/>
<rect x="35" y="34" width="5" height="1" fill="#7fb5b0"/>
<rect x="40" y="34" width="1" height="1" fill="#4f8f8a"/>
<rect x="41" y="34" width="1" height="1" fill="#3b7672"/>
<rect x="42" y="34" width="1" height="1" fill="#26564f"/>
<rect x="54" y="34" width="1" height="1" fill="#4f8f8a"/>
<rect x="55" y="34" width="1" height="1" fill="#3b7672"/>
<rect x="56" y="34" width="1" height="1" fill="#26564f"/>
<rect x="6" y="35" width="2" height="1" fill="#3b7672"/>
<rect x="8" y="35" width="1" height="1" fill="#26564f"/>
<rect x="19" y="35" width="2" height="1" fill="#26564f"/>
<rect x="21" y="35" width="1" height="1" fill="#3b7672"/>
<rect x="22" y="35" width="2" height="1" fill="#4f8f8a"/>
<rect x="24" y="35" width="1" height="1" fill="#7fb5b0"/>
<rect x="25" y="35" width="3" height="1" fill="#0d3b38"/>
<rect x="28" y="35" width="1" height="1" fill="#7fb5b0"/>
<rect x="29" y="35" width="6" height="1" fill="#4f8f8a"/>
<rect x="35" y="35" width="1" height="1" fill="#7fb5b0"/>
<rect x="36" y="35" width="3" height="1" fill="#0d3b38"/>
<rect x="39" y="35" width="1" height="1" fill="#7fb5b0"/>
<rect x="40" y="35" width="2" height="1" fill="#3b7672"/>
<rect x="42" y="35" width="1" height="1" fill="#26564f"/>
<rect x="53" y="35" width="1" height="1" fill="#4f8f8a"/>
<rect x="54" y="35" width="2" height="1" fill="#3b7672"/>
<rect x="56" y="35" width="1" height="1" fill="#26564f"/>
<rect x="6" y="36" width="1" height="1" fill="#26564f"/>
<rect x="7" y="36" width="1" height="1" fill="#3b7672"/>
<rect x="8" y="36" width="1" height="1" fill="#26564f"/>
<rect x="21" y="36" width="1" height="1" fill="#26564f"/>
<rect x="22" y="36" width="3" height="1" fill="#4f8f8a"/>
<rect x="25" y="36" width="3" height="1" fill="#3b7672"/>
<rect x="28" y="36" width="8" height="1" fill="#4f8f8a"/>
<rect x="36" y="36" width="3" height="1" fill="#3b7672"/>
<rect x="39" y="36" width="1" height="1" fill="#4f8f8a"/>
<rect x="40" y="36" width="1" height="1" fill="#3b7672"/>
<rect x="41" y="36" width="2" height="1" fill="#26564f"/>
<rect x="52" y="36" width="1" height="1" fill="#4f8f8a"/>
<rect x="53" y="36" width="2" height="1" fill="#3b7672"/>
<rect x="55" y="36" width="2" height="1" fill="#26564f"/>
<rect x="7" y="37" width="3" height="1" fill="#3b7672"/>
<rect x="10" y="37" width="1" height="1" fill="#26564f"/>
<rect x="22" y="37" width="18" height="1" fill="#4f8f8a"/>
<rect x="40" y="37" width="1" height="1" fill="#3b7672"/>
<rect x="41" y="37" width="1" height="1" fill="#26564f"/>
<rect x="50" y="37" width="2" height="1" fill="#4f8f8a"/>
<rect x="52" y="37" width="2" height="1" fill="#3b7672"/>
<rect x="54" y="37" width="2" height="1" fill="#26564f"/>
<rect x="7" y="38" width="2" height="1" fill="#26564f"/>
<rect x="9" y="38" width="1" height="1" fill="#3b7672"/>
<rect x="10" y="38" width="2" height="1" fill="#4f8f8a"/>
<rect x="12" y="38" width="1" height="1" fill="#3b7672"/>
<rect x="13" y="38" width="1" height="1" fill="#26564f"/>
<rect x="19" y="38" width="24" height="1" fill="#4f8f8a"/>
<rect x="43" y="38" width="1" height="1" fill="#3b7672"/>
<rect x="44" y="38" width="1" height="1" fill="#26564f"/>
<rect x="47" y="38" width="4" height="1" fill="#4f8f8a"/>
<rect x="51" y="38" width="2" height="1" fill="#3b7672"/>
<rect x="53" y="38" width="2" height="1" fill="#26564f"/>
<rect x="9" y="39" width="1" height="1" fill="#26564f"/>
<rect x="10" y="39" width="1" height="1" fill="#3b7672"/>
<rect x="11" y="39" width="39" height="1" fill="#4f8f8a"/>
<rect x="50" y="39" width="2" height="1" fill="#3b7672"/>
<rect x="52" y="39" width="2" height="1" fill="#26564f"/>
<rect x="10" y="40" width="1" height="1" fill="#26564f"/>
<rect x="11" y="40" width="3" height="1" fill="#3b7672"/>
<rect x="14" y="40" width="34" height="1" fill="#4f8f8a"/>
<rect x="48" y="40" width="3" height="1" fill="#3b7672"/>
<rect x="51" y="40" width="2" height="1" fill="#26564f"/>
<rect x="11" y="41" width="3" height="1" fill="#26564f"/>
<rect x="14" y="41" width="6" height="1" fill="#3b7672"/>
<rect x="20" y="41" width="25" height="1" fill="#4f8f8a"/>
<rect x="45" y="41" width="4" height="1" fill="#3b7672"/>
<rect x="49" y="41" width="3" height="1" fill="#26564f"/>
<rect x="14" y="42" width="6" height="1" fill="#26564f"/>
<rect x="20" y="42" width="23" height="1" fill="#4f8f8a"/>
<rect x="43" y="42" width="3" height="1" fill="#3b7672"/>
<rect x="46" y="42" width="4" height="1" fill="#26564f"/>
<rect x="20" y="43" width="4" height="1" fill="#4f8f8a"/>
<rect x="24" y="43" width="3" height="1" fill="#3b7672"/>
<rect x="27" y="43" width="16" height="1" fill="#4f8f8a"/>
<rect x="43" y="43" width="1" height="1" fill="#3b7672"/>
<rect x="44" y="43" width="3" height="1" fill="#26564f"/>
<rect x="19" y="44" width="3" height="1" fill="#4f8f8a"/>
<rect x="22" y="44" width="3" height="1" fill="#3b7672"/>
<rect x="25" y="44" width="2" height="1" fill="#26564f"/>
<rect x="27" y="44" width="9" height="1" fill="#4f8f8a"/>
<rect x="36" y="44" width="4" height="1" fill="#3b7672"/>
<rect x="40" y="44" width="3" height="1" fill="#4f8f8a"/>
<rect x="43" y="44" width="1" height="1" fill="#3b7672"/>
<rect x="44" y="44" width="1" height="1" fill="#26564f"/>
<rect x="18" y="45" width="2" height="1" fill="#4f8f8a"/>
<rect x="20" y="45" width="3" height="1" fill="#3b7672"/>
<rect x="23" y="45" width="3" height="1" fill="#26564f"/>
<rect x="27" y="45" width="2" height="1" fill="#4f8f8a"/>
<rect x="29" y="45" width="4" height="1" fill="#3b7672"/>
<rect x="33" y="45" width="3" height="1" fill="#4f8f8a"/>
<rect x="36" y="45" width="1" height="1" fill="#3b7672"/>
<rect x="37" y="45" width="3" height="1" fill="#26564f"/>
<rect x="40" y="45" width="2" height="1" fill="#3b7672"/>
<rect x="42" y="45" width="2" height="1" fill="#4f8f8a"/>
<rect x="44" y="45" width="1" height="1" fill="#3b7672"/>
<rect x="45" y="45" width="1" height="1" fill="#26564f"/>
<rect x="16" y="46" width="3" height="1" fill="#4f8f8a"/>
<rect x="19" y="46" width="2" height="1" fill="#3b7672"/>
<rect x="21" y="46" width="3" height="1" fill="#26564f"/>
<rect x="26" y="46" width="3" height="1" fill="#4f8f8a"/>
<rect x="29" y="46" width="1" height="1" fill="#3b7672"/>
<rect x="30" y="46" width="3" height="1" fill="#26564f"/>
<rect x="33" y="46" width="3" height="1" fill="#4f8f8a"/>
<rect x="36" y="46" width="1" height="1" fill="#3b7672"/>
<rect x="37" y="46" width="1" height="1" fill="#26564f"/>
<rect x="40" y="46" width="2" height="1" fill="#26564f"/>
<rect x="42" y="46" width="1" height="1" fill="#3b7672"/>
<rect x="43" y="46" width="3" height="1" fill="#4f8f8a"/>
<rect x="46" y="46" width="1" height="1" fill="#3b7672"/>
<rect x="47" y="46" width="1" height="1" fill="#26564f"/>
<rect x="15" y="47" width="2" height="1" fill="#4f8f8a"/>
<rect x="17" y="47" width="3" height="1" fill="#3b7672"/>
<rect x="20" y="47" width="2" height="1" fill="#26564f"/>
<rect x="26" y="47" width="2" height="1" fill="#4f8f8a"/>
<rect x="28" y="47" width="2" height="1" fill="#3b7672"/>
<rect x="30" y="47" width="1" height="1" fill="#26564f"/>
<rect x="33" y="47" width="1" height="1" fill="#3b7672"/>
<rect x="34" y="47" width="2" height="1" fill="#4f8f8a"/>
<rect x="36" y="47" width="1" height="1" fill="#3b7672"/>
<rect x="37" y="47" width="1" height="1" fill="#26564f"/>
<rect x="42" y="47" width="1" height="1" fill="#26564f"/>
<rect x="43" y="47" width="2" height="1" fill="#3b7672"/>
<rect x="45" y="47" width="2" height="1" fill="#4f8f8a"/>
<rect x="47" y="47" width="1" height="1" fill="#3b7672"/>
<rect x="48" y="47" width="1" height="1" fill="#26564f"/>
<rect x="15" y="48" width="1" height="1" fill="#4f8f8a"/>
<rect x="16" y="48" width="2" height="1" fill="#3b7672"/>
<rect x="18" y="48" width="3" height="1" fill="#26564f"/>
<rect x="26" y="48" width="2" height="1" fill="#4f8f8a"/>
<rect x="28" y="48" width="1" height="1" fill="#3b7672"/>
<rect x="29" y="48" width="2" height="1" fill="#26564f"/>
<rect x="33" y="48" width="1" height="1" fill="#26564f"/>
<rect x="34" y="48" width="2" height="1" fill="#4f8f8a"/>
<rect x="36" y="48" width="1" height="1" fill="#3b7672"/>
<rect x="37" y="48" width="1" height="1" fill="#26564f"/>
<rect x="43" y="48" width="2" height="1" fill="#26564f"/>
<rect x="45" y="48" width="2" height="1" fill="#3b7672"/>
<rect x="47" y="48" width="1" height="1" fill="#4f8f8a"/>
<rect x="48" y="48" width="1" height="1" fill="#3b7672"/>
<rect x="49" y="48" width="1" height="1" fill="#26564f"/>
<rect x="14" y="49" width="3" height="1" fill="#3b7672"/>
<rect x="17" y="49" width="2" height="1" fill="#26564f"/>
<rect x="25" y="49" width="2" height="1" fill="#4f8f8a"/>
<rect x="27" y="49" width="2" height="1" fill="#3b7672"/>
<rect x="29" y="49" width="1" height="1" fill="#26564f"/>
<rect x="34" y="49" width="2" height="1" fill="#4f8f8a"/>
<rect x="36" y="49" width="1" height="1" fill="#3b7672"/>
<rect x="37" y="49" width="1" height="1" fill="#26564f"/>
<rect x="45" y="49" width="2" height="1" fill="#26564f"/>
<rect x="47" y="49" width="3" height="1" fill="#3b7672"/>
<rect x="50" y="49" width="1" height="1" fill="#26564f"/>
<rect x="13" y="50" width="2" height="1" fill="#3b7672"/>
<rect x="15" y="50" width="3" height="1" fill="#26564f"/>
<rect x="25" y="50" width="1" height="1" fill="#4f8f8a"/>
<rect x="26" y="50" width="2" height="1" fill="#3b7672"/>
<rect x="28" y="50" width="2" height="1" fill="#26564f"/>
<rect x="34" y="50" width="3" height="1" fill="#4f8f8a"/>
<rect x="37" y="50" width="1" height="1" fill="#3b7672"/>
<rect x="38" y="50" width="1" height="1" fill="#26564f"/>
<rect x="47" y="50" width="2" height="1" fill="#26564f"/>
<rect x="49" y="50" width="3" height="1" fill="#3b7672"/>
<rect x="52" y="50" width="1" height="1" fill="#26564f"/>
<rect x="11" y="51" width="3" height="1" fill="#3b7672"/>
<rect x="14" y="51" width="2" height="1" fill="#26564f"/>
<rect x="24" y="51" width="1" height="1" fill="#4f8f8a"/>
<rect x="25" y="51" width="2" height="1" fill="#3b7672"/>
<rect x="27" y="51" width="2" height="1" fill="#26564f"/>
<rect x="33" y="51" width="1" height="1" fill="#3b7672"/>
<rect x="34" y="51" width="3" height="1" fill="#4f8f8a"/>
<rect x="37" y="51" width="1" height="1" fill="#3b7672"/>
<rect x="38" y="51" width="1" height="1" fill="#26564f"/>
<rect x="49" y="51" width="2" height="1" fill="#26564f"/>
<rect x="51" y="51" width="2" height="1" fill="#3b7672"/>
<rect x="53" y="51" width="1" height="1" fill="#26564f"/>
<rect x="10" y="52" width="2" height="1" fill="#3b7672"/>
<rect x="12" y="52" width="3" height="1" fill="#26564f"/>
<rect x="23" y="52" width="1" height="1" fill="#4f8f8a"/>
<rect x="24" y="52" width="2" height="1" fill="#3b7672"/>
<rect x="26" y="52" width="2" height="1" fill="#26564f"/>
<rect x="33" y="52" width="1" height="1" fill="#26564f"/>
<rect x="34" y="52" width="1" height="1" fill="#3b7672"/>
<rect x="35" y="52" width="2" height="1" fill="#4f8f8a"/>
<rect x="37" y="52" width="1" height="1" fill="#3b7672"/>
<rect x="38" y="52" width="1" height="1" fill="#26564f"/>
<rect x="51" y="52" width="1" height="1" fill="#26564f"/>
<rect x="52" y="52" width="2" height="1" fill="#3b7672"/>
<rect x="54" y="52" width="1" height="1" fill="#26564f"/>
<rect x="8" y="53" width="2" height="1" fill="#3b7672"/>
<rect x="10" y="53" width="3" height="1" fill="#26564f"/>
<rect x="22" y="53" width="1" height="1" fill="#4f8f8a"/>
<rect x="23" y="53" width="2" height="1" fill="#3b7672"/>
<rect x="25" y="53" width="2" height="1" fill="#26564f"/>
<rect x="32" y="53" width="2" height="1" fill="#fbefdc"/>
<rect x="34" y="53" width="1" height="1" fill="#26564f"/>
<rect x="35" y="53" width="1" height="1" fill="#4f8f8a"/>
<rect x="36" y="53" width="2" height="1" fill="#3b7672"/>
<rect x="38" y="53" width="1" height="1" fill="#26564f"/>
<rect x="52" y="53" width="2" height="1" fill="#26564f"/>
<rect x="54" y="53" width="1" height="1" fill="#3b7672"/>
<rect x="55" y="53" width="1" height="1" fill="#26564f"/>
<rect x="57" y="53" width="2" height="1" fill="#8fa35a"/>
<rect x="3" y="54" width="1" height="1" fill="#fbefdc"/>
<rect x="4" y="54" width="3" height="1" fill="#f3c6b6"/>
<rect x="7" y="54" width="1" height="1" fill="#3b7672"/>
<rect x="8" y="54" width="3" height="1" fill="#26564f"/>
<rect x="21" y="54" width="3" height="1" fill="#3b7672"/>
<rect x="24" y="54" width="2" height="1" fill="#26564f"/>
<rect x="31" y="54" width="1" height="1" fill="#c8b47c"/>
<rect x="32" y="54" width="3" height="1" fill="#fbefdc"/>
<rect x="35" y="54" width="1" height="1" fill="#4f8f8a"/>
<rect x="36" y="54" width="1" height="1" fill="#3b7672"/>
<rect x="37" y="54" width="2" height="1" fill="#26564f"/>
<rect x="54" y="54" width="1" height="1" fill="#26564f"/>
<rect x="55" y="54" width="1" height="1" fill="#fbefdc"/>
<rect x="56" y="54" width="4" height="1" fill="#8fa35a"/>
<rect x="3" y="55" width="5" height="1" fill="#f3c6b6"/>
<rect x="8" y="55" width="1" height="1" fill="#26564f"/>
<rect x="19" y="55" width="3" height="1" fill="#3b7672"/>
<rect x="22" y="55" width="3" height="1" fill="#26564f"/>
<rect x="30" y="55" width="6" height="1" fill="#fbefdc"/>
<rect x="36" y="55" width="1" height="1" fill="#3b7672"/>
<rect x="37" y="55" width="1" height="1" fill="#26564f"/>
<rect x="55" y="55" width="6" height="1" fill="#8fa35a"/>
<rect x="3" y="56" width="5" height="1" fill="#f3c6b6"/>
<rect x="14" y="56" width="1" height="1" fill="#fbefdc"/>
<rect x="15" y="56" width="3" height="1" fill="#b07a8a"/>
<rect x="18" y="56" width="1" height="1" fill="#3b7672"/>
<rect x="19" y="56" width="4" height="1" fill="#26564f"/>
<rect x="30" y="56" width="5" height="1" fill="#fbefdc"/>
<rect x="35" y="56" width="1" height="1" fill="#b4ac9e"/>
<rect x="36" y="56" width="2" height="1" fill="#26564f"/>
<rect x="55" y="56" width="5" height="1" fill="#8fa35a"/>
<rect x="60" y="56" width="1" height="1" fill="#667540"/>
<rect x="3" y="57" width="4" height="1" fill="#f3c6b6"/>
<rect x="7" y="57" width="1" height="1" fill="#ae8e83"/>
<rect x="13" y="57" width="6" height="1" fill="#b07a8a"/>
<rect x="19" y="57" width="1" height="1" fill="#26564f"/>
<rect x="31" y="57" width="3" height="1" fill="#fbefdc"/>
<rect x="34" y="57" width="1" height="1" fill="#b4ac9e"/>
<rect x="35" y="57" width="2" height="1" fill="#26564f"/>
<rect x="55" y="57" width="4" height="1" fill="#8fa35a"/>
<rect x="59" y="57" width="1" height="1" fill="#667540"/>
<rect x="3" y="58" width="3" height="1" fill="#f3c6b6"/>
<rect x="6" y="58" width="2" height="1" fill="#ae8e83"/>
<rect x="13" y="58" width="6" height="1" fill="#b07a8a"/>
<rect x="32" y="58" width="1" height="1" fill="#fbefdc"/>
<rect x="33" y="58" width="1" height="1" fill="#b4ac9e"/>
<rect x="56" y="58" width="2" height="1" fill="#8fa35a"/>
<rect x="58" y="58" width="1" height="1" fill="#667540"/>
<rect x="4" y="59" width="1" height="1" fill="#f3c6b6"/>
<rect x="5" y="59" width="1" height="1" fill="#ae8e83"/>
<rect x="13" y="59" width="5" height="1" fill="#b07a8a"/>
<rect x="18" y="59" width="1" height="1" fill="#7e5763"/>
<rect x="14" y="60" width="3" height="1" fill="#b07a8a"/>
<rect x="17" y="60" width="1" height="1" fill="#7e5763"/>
</svg>
