<svg xmlns="http://www.w3.org/2000/svg" viewBox="0 0 24 24" width="192" height="192" shape-rendering="crispEdges">
<!-- OmniQueue octopus, generated by tools/make_logo.py -->
<rect x="7" y="0" width="10" height="1" fill="#0d3b38"/>
<rect x="5" y="1" width="2" height="1" fill="#0d3b38"/>
<rect x="7" y="1" width="10" height="1" fill="#4f8f8a"/>
<rect x="17" y="1" width="2" height="1" fill="#0d3b38"/>
<rect x="4" y="2" width="1" height="1" fill="#0d3b38"/>
<rect x="5" y="2" width="2" height="1" fill="#4f8f8a"/>
<rect x="7" y="2" width="2" height="1" fill="#a9cbc8"/>
<rect x="9" y="2" width="10" height="1" fill="#4f8f8a"/>
<rect x="19" y="2" width="1" height="1" fill="#0d3b38"/>
<rect x="3" y="3" width="1" height="1" fill="#0d3b38"/>
<rect x="4" y="3" width="2" height="1" fill="#4f8f8a"/>
<rect x="6" y="3" width="1" height="1" fill="#a9cbc8"/>
<rect x="7" y="3" width="13" height="1" fill="#4f8f8a"/>
<rect x="20" y="3" width="1" height="1" fill="#0d3b38"/>
<rect x="3" y="4" width="1" height="1" fill="#0d3b38"/>
<rect x="4" y="4" width="2" height="1" fill="#4f8f8a"/>
<rect x="6" y="4" width="1" height="1" fill="#a9cbc8"/>
<rect x="7" y="4" width="13" height="1" fill="#4f8f8a"/>
<rect x="20" y="4" width="1" height="1" fill="#0d3b38"/>
<rect x="2" y="5" width="1" height="1" fill="#0d3b38"/>
<rect x="3" y="5" width="18" height="1" fill="#4f8f8a"/>
<rect x="21" y="5" width="1" height="1" fill="#0d3b38"/>
<rect x="2" y="6" width="1" height="1" fill="#0d3b38"/>
<rect x="3" y="6" width="2" height="1" fill="#4f8f8a"/>
<rect x="5" y="6" width="5" height="1" fill="#0d3b38"/>
<rect x="10" y="6" width="4" height="1" fill="#4f8f8a"/>
<rect x="14" y="6" width="5" height="1" fill="#0d3b38"/>
<rect x="19" y="6" width="2" height="1" fill="#4f8f8a"/>
<rect x="21" y="6" width="1" height="1" fill="#0d3b38"/>
<rect x="2" y="7" width="1" height="1" fill="#0d3b38"/>
<rect x="3" y="7" width="2" height="1" fill="#4f8f8a"/>
<rect x="5" y="7" width="1" height="1" fill="#0d3b38"/>
<rect x="6" y="7" width="3" height="1" fill="#fbefdc"/>
<rect x="9" y="7" width="1" height="1" fill="#0d3b38"/>
<rect x="10" y="7" width="4" height="1" fill="#4f8f8a"/>
<rect x="14" y="7" width="1" height="1" fill="#0d3b38"/>
<rect x="15" y="7" width="3" height="1" fill="#fbefdc"/>
<rect x="18" y="7" width="1" height="1" fill="#0d3b38"/>
<rect x="19" y="7" width="2" height="1" fill="#4f8f8a"/>
<rect x="21" y="7" width="1" height="1" fill="#0d3b38"/>
<rect x="2" y="8" width="1" height="1" fill="#0d3b38"/>
<rect x="3" y="8" width="2" height="1" fill="#4f8f8a"/>
<rect x="5" y="8" width="1" height="1" fill="#0d3b38"/>
<rect x="6" y="8" width="1" height="1" fill="#fbefdc"/>
<rect x="7" y="8" width="1" height="1" fill="#0d3b38"/>
<rect x="8" y="8" width="1" height="1" fill="#fbefdc"/>
<rect x="9" y="8" width="1" height="1" fill="#0d3b38"/>
<rect x="10" y="8" width="4" height="1" fill="#4f8f8a"/>
<rect x="14" y="8" width="1" height="1" fill="#0d3b38"/>
<rect x="15" y="8" width="1" height="1" fill="#fbefdc"/>
<rect x="16" y="8" width="1" height="1" fill="#0d3b38"/>
<rect x="17" y="8" width="1" height="1" fill="#fbefdc"/>
<rect x="18" y="8" width="1" height="1" fill="#0d3b38"/>
<rect x="19" y="8" width="2" height="1" fill="#4f8f8a"/>
<rect x="21" y="8" width="1" height="1" fill="#0d3b38"/>
<rect x="2" y="9" width="1" height="1" fill="#0d3b38"/>
<rect x="3" y="9" width="2" height="1" fill="#4f8f8a"/>
<rect x="5" y="9" width="1" height="1" fill="#0d3b38"/>
<rect x="6" y="9" width="1" height="1" fill="#fbefdc"/>
<rect x="7" y="9" width="1" height="1" fill="#0d3b38"/>
<rect x="8" y="9" width="1" height="1" fill="#fbefdc"/>
<rect x="9" y="9" width="1" height="1" fill="#0d3b38"/>
<rect x="10" y="9" width="4" height="1" fill="#4f8f8a"/>
<rect x="14" y="9" width="1" height="1" fill="#0d3b38"/>
<rect x="15" y="9" width="1" height="1" fill="#fbefdc"/>
<rect x="16" y="9" width="1" height="1" fill="#0d3b38"/>
<rect x="17" y="9" width="1" height="1" fill="#fbefdc"/>
<rect x="18" y="9" width="1" height="1" fill="#0d3b38"/>
<rect x="19" y="9" width="2" height="1" fill="#4f8f8a"/>
<rect x="21" y="9" width="1" height="1" fill="#0d3b38"/>
<rect x="2" y="10" width="1" height="1" fill="#0d3b38"/>
<rect x="3" y="10" width="2" height="1" fill="#4f8f8a"/>
<rect x="5" y="10" width="5" height="1" fill="#0d3b38"/>
<rect x="10" y="10" width="4" height="1" fill="#4f8f8a"/>
<rect x="14" y="10" width="5" height="1" fill="#0d3b38"/>
<rect x="19" y="10" width="2" height="1" fill="#4f8f8a"/>
<rect x="21" y="10" width="1" height="1" fill="#0d3b38"/>
<rect x="2" y="11" width="1" height="1" fill="#0d3b38"/>
<rect x="3" y="11" width="1" height="1" fill="#4f8f8a"/>
<rect x="4" y="11" width="2" height="1" fill="#e2856c"/>
<rect x="6" y="11" width="12" height="1" fill="#4f8f8a"/>
<rect x="18" y="11" width="2" height="1" fill="#e2856c"/>
<rect x="20" y="11" width="1" height="1" fill="#4f8f8a"/>
<rect x="21" y="11" width="1" height="1" fill="#0d3b38"/>
<rect x="3" y="12" width="1" height="1" fill="#0d3b38"/>
<rect x="4" y="12" width="16" height="1" fill="#4f8f8a"/>
<rect x="20" y="12" width="1" height="1" fill="#0d3b38"/>
<rect x="3" y="13" width="1" height="1" fill="#0d3b38"/>
<rect x="4" y="13" width="3" height="1" fill="#4f8f8a"/>
<rect x="7" y="13" width="1" height="1" fill="#0d3b38"/>
<rect x="8" y="13" width="3" height="1" fill="#4f8f8a"/>
<rect x="11" y="13" width="2" height="1" fill="#0d3b38"/>
<rect x="13" y="13" width="3" height="1" fill="#4f8f8a"/>
<rect x="16" y="13" width="1" height="1" fill="#0d3b38"/>
<rect x="17" y="13" width="3" height="1" fill="#4f8f8a"/>
<rect x="20" y="13" width="1" height="1" fill="#0d3b38"/>
<rect x="2" y="14" width="1" height="1" fill="#0d3b38"/>
<rect x="3" y="14" width="3" height="1" fill="#4f8f8a"/>
<rect x="6" y="14" width="2" height="1" fill="#0d3b38"/>
<rect x="8" y="14" width="3" height="1" fill="#4f8f8a"/>
<rect x="11" y="14" width="2" height="1" fill="#0d3b38"/>
<rect x="13" y="14" width="3" height="1" fill="#4f8f8a"/>
<rect x="16" y="14" width="2" height="1" fill="#0d3b38"/>
<rect x="18" y="14" width="3" height="1" fill="#4f8f8a"/>
<rect x="21" y="14" width="1" height="1" fill="#0d3b38"/>
<rect x="1" y="15" width="1" height="1" fill="#0d3b38"/>
<rect x="2" y="15" width="3" height="1" fill="#4f8f8a"/>
<rect x="5" y="15" width="1" height="1" fill="#0d3b38"/>
<rect x="7" y="15" width="1" height="1" fill="#0d3b38"/>
<rect x="8" y="15" width="3" height="1" fill="#4f8f8a"/>
<rect x="11" y="15" width="2" height="1" fill="#0d3b38"/>
<rect x="13" y="15" width="3" height="1" fill="#4f8f8a"/>
<rect x="16" y="15" width="1" height="1" fill="#0d3b38"/>
<rect x="18" y="15" width="1" height="1" fill="#0d3b38"/>
<rect x="19" y="15" width="3" height="1" fill="#4f8f8a"/>
<rect x="22" y="15" width="1" height="1" fill="#0d3b38"/>
<rect x="0" y="16" width="1" height="1" fill="#0d3b38"/>
<rect x="1" y="16" width="3" height="1" fill="#4f8f8a"/>
<rect x="4" y="16" width="1" height="1" fill="#0d3b38"/>
<rect x="7" y="16" width="1" height="1" fill="#0d3b38"/>
<rect x="8" y="16" width="3" height="1" fill="#4f8f8a"/>
<rect x="11" y="16" width="2" height="1" fill="#0d3b38"/>
<rect x="13" y="16" width="3" height="1" fill="#4f8f8a"/>
<rect x="16" y="16" width="1" height="1" fill="#0d3b38"/>
<rect x="19" y="16" width="1" height="1" fill="#0d3b38"/>
<rect x="20" y="16" width="3" height="1" fill="#4f8f8a"/>
<rect x="23" y="16" width="1" height="1" fill="#0d3b38"/>
<rect x="0" y="17" width="1" height="1" fill="#0d3b38"/>
<rect x="1" y="17" width="2" height="1" fill="#4f8f8a"/>
<rect x="3" y="17" width="1" height="1" fill="#0d3b38"/>
<rect x="7" y="17" width="1" height="1" fill="#0d3b38"/>
<rect x="8" y="17" width="2" height="1" fill="#4f8f8a"/>
<rect x="10" y="17" width="4" height="1" fill="#0d3b38"/>
<rect x="14" y="17" width="2" height="1" fill="#4f8f8a"/>
<rect x="16" y="17" width="1" height="1" fill="#0d3b38"/>
<rect x="20" y="17" width="1" height="1" fill="#0d3b38"/>
<rect x="21" y="17" width="2" height="1" fill="#4f8f8a"/>
<rect x="23" y="17" width="1" height="1" fill="#0d3b38"/>
<rect x="0" y="18" width="1" height="1" fill="#0d3b38"/>
<rect x="1" y="18" width="2" height="1" fill="#3b7672"/>
<rect x="3" y="18" width="1" height="1" fill="#0d3b38"/>
<rect x="7" y="18" width="1" height="1" fill="#0d3b38"/>
<rect x="8" y="18" width="2" height="1" fill="#4f8f8a"/>
<rect x="10" y="18" width="1" height="1" fill="#0d3b38"/>
<rect x="13" y="18" width="1" height="1" fill="#0d3b38"/>
<rect x="14" y="18" width="2" height="1" fill="#4f8f8a"/>
<rect x="16" y="18" width="1" height="1" fill="#0d3b38"/>
<rect x="20" y="18" width="1" height="1" fill="#0d3b38"/>
<rect x="21" y="18" width="2" height="1" fill="#3b7672"/>
<rect x="23" y="18" width="1" height="1" fill="#0d3b38"/>
<rect x="0" y="19" width="2" height="1" fill="#b39a4b"/>
<rect x="2" y="19" width="2" height="1" fill="#0d3b38"/>
<rect x="7" y="19" width="1" height="1" fill="#0d3b38"/>
<rect x="8" y="19" width="2" height="1" fill="#4f8f8a"/>
<rect x="10" y="19" width="1" height="1" fill="#0d3b38"/>
<rect x="13" y="19" width="1" height="1" fill="#0d3b38"/>
<rect x="14" y="19" width="2" height="1" fill="#4f8f8a"/>
<rect x="16" y="19" width="1" height="1" fill="#0d3b38"/>
<rect x="20" y="19" width="2" height="1" fill="#0d3b38"/>
<rect x="22" y="19" width="2" height="1" fill="#b39a4b"/>
<rect x="0" y="20" width="1" height="1" fill="#fbefdc"/>
<rect x="1" y="20" width="1" height="1" fill="#b39a4b"/>
<rect x="7" y="20" width="1" height="1" fill="#0d3b38"/>
<rect x="8" y="20" width="2" height="1" fill="#4f8f8a"/>
<rect x="10" y="20" width="1" height="1" fill="#0d3b38"/>
<rect x="13" y="20" width="1" height="1" fill="#0d3b38"/>
<rect x="14" y="20" width="2" height="1" fill="#4f8f8a"/>
<rect x="16" y="20" width="1" height="1" fill="#0d3b38"/>
<rect x="22" y="20" width="1" height="1" fill="#b39a4b"/>
<rect x="23" y="20" width="1" height="1" fill="#fbefdc"/>
<rect x="2" y="21" width="1" height="1" fill="#c8b47c"/>
<rect x="7" y="21" width="1" height="1" fill="#0d3b38"/>
<rect x="8" y="21" width="1" height="1" fill="#3b7672"/>
<rect x="9" y="21" width="1" height="1" fill="#4f8f8a"/>
<rect x="10" y="21" width="1" height="1" fill="#0d3b38"/>
<rect x="13" y="21" width="1" height="1" fill="#0d3b38"/>
<rect x="14" y="21" width="1" height="1" fill="#4f8f8a"/>
<rect x="15" y="21" width="1" height="1" fill="#3b7672"/>
<rect x="16" y="21" width="1" height="1" fill="#0d3b38"/>
<rect x="21" y="21" width="1" height="1" fill="#c8b47c"/>
<rect x="8" y="22" width="2" height="1" fill="#b39a4b"/>
<rect x="14" y="22" width="2" height="1" fill="#b39a4b"/>
<rect x="8" y="23" width="1" height="1" fill="#fbefdc"/>
<rect x="9" y="23" width="1" height="1" fill="#b39a4b"/>
<rect x="11" y="23" width="2" height="1" fill="#c8b47c"/>
<rect x="14" y="23" width="1" height="1" fill="#b39a4b"/>
<rect x="15" y="23" width="1" height="1" fill="#fbefdc"/>
</svg>
